<svg xmlns="http://www.w3.org/2000/svg" xmlns:xlink="http://www.w3.org/1999/xlink" width="512" zoomAndPan="magnify" viewBox="0 0 384 383.999986" height="512" preserveAspectRatio="xMidYMid meet" version="1.0"><defs><clipPath id="ca3be95aa0"><path d="M 11.175781 214.589844 L 186.273438 214.589844 L 186.273438 308.796875 L 11.175781 308.796875 Z M 11.175781 214.589844 " clip-rule="nonzero"/></clipPath><clipPath id="653a82a035"><path d="M 138 75.546875 L 232 75.546875 L 232 241 L 138 241 Z M 138 75.546875 " clip-rule="nonzero"/></clipPath><clipPath id="b771c13c9a"><path d="M 198.292969 204.082031 L 372.53125 204.082031 L 372.53125 308.796875 L 198.292969 308.796875 Z M 198.292969 204.082031 " clip-rule="nonzero"/></clipPath><clipPath id="208e61b4ff"><path d="M 11.101562 218 L 15 218 L 15 222 L 11.101562 222 Z M 11.101562 218 " clip-rule="nonzero"/></clipPath><clipPath id="7b6152ab69"><path d="M 369 218 L 372.601562 218 L 372.601562 222.898438 L 369 222.898438 Z M 369 218 " clip-rule="nonzero"/></clipPath></defs><path fill="#cda146" d="M 72.511719 251.046875 C 73.066406 250.5 73.605469 249.933594 74.148438 249.375 L 75.78125 247.695312 C 76.328125 247.140625 76.867188 246.558594 77.394531 246.007812 C 77.910156 245.464844 78.429688 244.929688 78.96875 244.410156 C 79.503906 243.882812 80.046875 243.359375 80.609375 242.851562 C 81.164062 242.339844 81.742188 241.851562 82.316406 241.351562 C 82.898438 240.855469 83.488281 240.375 84.09375 239.902344 C 84.695312 239.425781 85.304688 238.953125 85.933594 238.5 C 86.554688 238.039062 87.1875 237.59375 87.832031 237.148438 C 88.472656 236.707031 89.128906 236.273438 89.789062 235.832031 L 88.628906 236.070312 C 88.246094 236.160156 87.855469 236.246094 87.472656 236.347656 C 86.703125 236.550781 85.9375 236.769531 85.179688 237.015625 C 84.421875 237.261719 83.667969 237.535156 82.917969 237.816406 C 82.171875 238.109375 81.433594 238.425781 80.699219 238.753906 C 79.960938 239.082031 79.234375 239.4375 78.519531 239.8125 C 77.800781 240.1875 77.085938 240.574219 76.386719 240.988281 C 75.6875 241.402344 75 241.835938 74.316406 242.285156 C 73.648438 242.71875 73 243.136719 72.355469 243.578125 L 70.414062 244.886719 C 69.769531 245.324219 69.117188 245.753906 68.480469 246.199219 L 64.640625 248.867188 L 60.839844 251.578125 C 60.203125 252.027344 59.574219 252.484375 58.949219 252.945312 L 57.066406 254.324219 L 52.816406 257.429688 L 57.339844 261.058594 C 59.007812 262.394531 60.683594 263.71875 62.363281 265.035156 C 64.046875 266.347656 65.742188 267.648438 67.4375 268.941406 C 69.136719 270.230469 70.839844 271.515625 72.554688 272.785156 L 73.941406 273.773438 L 74.597656 274.234375 L 75.363281 274.726562 C 75.875 275.050781 76.394531 275.394531 76.90625 275.703125 L 78.429688 276.578125 C 80.480469 277.703125 82.589844 278.742188 84.777344 279.582031 C 85.316406 279.816406 85.871094 280.003906 86.421875 280.199219 C 86.976562 280.390625 87.523438 280.601562 88.085938 280.765625 L 89.765625 281.28125 L 91.464844 281.722656 C 93.738281 282.277344 96.042969 282.71875 98.367188 282.964844 C 100.691406 283.203125 103.023438 283.351562 105.355469 283.28125 C 105.9375 283.28125 106.519531 283.246094 107.097656 283.214844 C 107.679688 283.179688 108.261719 283.15625 108.839844 283.089844 L 110.574219 282.921875 L 112.296875 282.671875 C 112.871094 282.597656 113.441406 282.476562 114.011719 282.375 C 114.582031 282.269531 115.148438 282.164062 115.710938 282.023438 L 117.402344 281.621094 L 119.070312 281.152344 C 119.625 281.003906 120.171875 280.804688 120.71875 280.628906 C 121.265625 280.449219 121.8125 280.269531 122.347656 280.054688 L 123.960938 279.4375 L 125.539062 278.742188 C 126.066406 278.519531 126.574219 278.25 127.089844 278.003906 C 127.605469 277.75 128.121094 277.503906 128.621094 277.222656 C 129.121094 276.949219 129.625 276.683594 130.121094 276.398438 L 131.578125 275.5 C 132.066406 275.210938 132.53125 274.882812 133.003906 274.566406 C 133.472656 274.246094 133.949219 273.941406 134.402344 273.59375 L 135.753906 272.566406 L 137.0625 271.492188 C 137.503906 271.140625 137.925781 270.765625 138.335938 270.382812 C 138.746094 269.996094 139.171875 269.628906 139.5625 269.230469 L 140.75 268.039062 C 141.144531 267.644531 141.492188 267.253906 141.863281 266.855469 C 143.324219 265.277344 144.769531 263.683594 146.199219 262.0625 C 147.625 260.441406 149.03125 258.800781 150.394531 257.105469 C 148.484375 258.144531 146.621094 259.238281 144.777344 260.355469 C 142.929688 261.472656 141.105469 262.613281 139.296875 263.773438 L 137.945312 264.636719 L 136.636719 265.445312 C 136.203125 265.71875 135.746094 265.953125 135.300781 266.207031 C 134.859375 266.457031 134.421875 266.71875 133.96875 266.945312 L 132.617188 267.648438 L 131.246094 268.292969 C 130.796875 268.519531 130.328125 268.710938 129.871094 268.914062 C 129.40625 269.113281 128.957031 269.324219 128.484375 269.496094 C 126.628906 270.246094 124.738281 270.882812 122.835938 271.425781 C 120.933594 271.96875 119.003906 272.378906 117.074219 272.722656 C 115.144531 273.066406 113.199219 273.257812 111.261719 273.394531 C 109.320312 273.53125 107.375 273.515625 105.445312 273.441406 L 103.996094 273.363281 L 102.554688 273.230469 C 102.074219 273.199219 101.597656 273.121094 101.121094 273.0625 C 100.640625 273.003906 100.164062 272.949219 99.6875 272.863281 L 98.265625 272.632812 L 96.851562 272.34375 C 96.378906 272.253906 95.914062 272.128906 95.445312 272.023438 C 94.976562 271.910156 94.507812 271.808594 94.046875 271.667969 C 92.1875 271.183594 90.371094 270.558594 88.582031 269.867188 L 87.246094 269.332031 L 85.933594 268.742188 C 85.488281 268.554688 85.0625 268.339844 84.632812 268.125 C 84.203125 267.910156 83.761719 267.714844 83.34375 267.476562 L 82.078125 266.792969 C 81.667969 266.5625 81.289062 266.332031 80.890625 266.101562 L 80.296875 265.753906 L 79.625 265.316406 L 78.367188 264.511719 C 76.597656 263.320312 74.816406 262.148438 73.03125 260.976562 C 71.242188 259.8125 69.449219 258.65625 67.648438 257.507812 C 67.3125 257.296875 66.96875 257.085938 66.628906 256.871094 L 69.210938 254.355469 L 72.511719 251.046875 " fill-opacity="1" fill-rule="nonzero"/><g clip-path="url(#ca3be95aa0)"><path fill="#bd8e2d" d="M 181.40625 263.523438 C 179.859375 264.59375 178.316406 265.675781 176.785156 266.761719 C 175.246094 267.84375 173.714844 268.941406 172.191406 270.039062 C 170.65625 271.128906 169.136719 272.234375 167.617188 273.339844 C 166.097656 274.449219 164.570312 275.546875 163.066406 276.664062 L 158.527344 280.011719 L 154.015625 283.386719 C 152.511719 284.511719 151.003906 285.628906 149.511719 286.769531 L 149.707031 286.617188 C 148.417969 287.394531 147.148438 288.199219 145.851562 288.949219 L 143.890625 290.03125 L 142.910156 290.570312 C 142.582031 290.746094 142.246094 290.90625 141.914062 291.074219 L 139.921875 292.070312 C 139.261719 292.410156 138.574219 292.683594 137.902344 292.992188 L 136.886719 293.441406 L 136.382812 293.664062 L 135.867188 293.863281 L 133.8125 294.664062 C 131.058594 295.675781 128.273438 296.570312 125.441406 297.207031 C 122.609375 297.835938 119.753906 298.3125 116.863281 298.578125 C 115.417969 298.722656 113.957031 298.800781 112.480469 298.859375 L 110.234375 298.917969 L 109.085938 298.945312 L 107.972656 298.960938 L 107.390625 298.96875 L 106.859375 298.964844 L 105.796875 298.949219 C 105.070312 298.929688 104.34375 298.914062 103.613281 298.871094 C 102.164062 298.796875 100.710938 298.683594 99.269531 298.519531 C 96.378906 298.191406 93.507812 297.742188 90.679688 297.089844 C 89.265625 296.773438 87.859375 296.40625 86.464844 296 L 85.945312 295.847656 L 85.683594 295.773438 L 85.460938 295.703125 L 84.351562 295.351562 C 83.644531 295.113281 83.023438 294.925781 82.328125 294.671875 C 79.585938 293.722656 76.910156 292.601562 74.304688 291.335938 C 71.703125 290.054688 69.175781 288.632812 66.722656 287.085938 C 66.113281 286.691406 65.503906 286.300781 64.90625 285.886719 L 64.007812 285.273438 L 63.054688 284.605469 L 59.238281 281.933594 C 56.695312 280.148438 54.128906 278.398438 51.574219 276.632812 C 49.011719 274.875 46.464844 273.097656 43.894531 271.355469 L 36.179688 266.125 C 33.617188 264.371094 31.019531 262.664062 28.441406 260.933594 C 27.363281 260.214844 26.289062 259.496094 25.214844 258.777344 L 27.710938 256.542969 L 34.425781 250.449219 C 36.664062 248.417969 38.878906 246.359375 41.109375 244.3125 C 43.339844 242.273438 45.535156 240.191406 47.75 238.132812 C 49.96875 236.074219 52.152344 233.976562 54.355469 231.902344 L 57.636719 228.761719 L 60.902344 225.621094 C 61.457031 225.089844 61.972656 224.605469 62.53125 224.097656 C 63.082031 223.597656 63.640625 223.105469 64.207031 222.621094 C 65.332031 221.644531 66.488281 220.695312 67.675781 219.78125 C 68.859375 218.863281 70.070312 217.96875 71.308594 217.109375 C 72.546875 216.25 73.808594 215.414062 75.09375 214.601562 C 73.667969 215.125 72.257812 215.699219 70.867188 216.328125 C 69.480469 216.957031 68.105469 217.628906 66.753906 218.347656 C 65.40625 219.074219 64.074219 219.835938 62.765625 220.644531 C 62.113281 221.050781 61.464844 221.46875 60.824219 221.894531 C 60.1875 222.316406 59.527344 222.773438 58.917969 223.203125 C 57.660156 224.089844 56.460938 224.980469 55.226562 225.871094 L 51.558594 228.542969 C 49.125 230.34375 46.675781 232.121094 44.261719 233.941406 C 41.84375 235.757812 39.40625 237.550781 37.003906 239.386719 C 34.597656 241.21875 32.183594 243.03125 29.785156 244.878906 L 22.601562 250.410156 L 15.457031 255.988281 L 11.175781 259.332031 L 15.734375 262.804688 C 18.207031 264.6875 20.707031 266.539062 23.195312 268.394531 C 25.691406 270.25 28.167969 272.121094 30.679688 273.953125 L 38.191406 279.46875 C 40.695312 281.3125 43.222656 283.113281 45.738281 284.941406 C 48.257812 286.753906 50.761719 288.589844 53.296875 290.386719 L 57.09375 293.085938 L 58.042969 293.761719 L 59.0625 294.472656 C 59.738281 294.945312 60.433594 295.398438 61.125 295.851562 C 62.515625 296.75 63.933594 297.605469 65.375 298.421875 C 66.828125 299.222656 68.296875 299.988281 69.789062 300.703125 C 72.777344 302.132812 75.847656 303.390625 78.980469 304.453125 C 79.746094 304.71875 80.613281 304.992188 81.382812 305.226562 L 82.5 305.550781 L 82.832031 305.644531 L 83.132812 305.726562 L 83.734375 305.886719 C 85.328125 306.3125 86.941406 306.695312 88.5625 307.019531 C 90.179688 307.351562 91.808594 307.636719 93.445312 307.863281 C 94.261719 307.988281 95.085938 308.078125 95.90625 308.175781 C 96.726562 308.257812 97.546875 308.339844 98.371094 308.394531 C 100.019531 308.519531 101.667969 308.589844 103.316406 308.609375 C 104.140625 308.625 104.964844 308.617188 105.789062 308.609375 L 107.054688 308.574219 L 107.6875 308.554688 L 108.269531 308.527344 L 109.480469 308.464844 L 110.660156 308.394531 C 111.449219 308.339844 112.257812 308.277344 113.0625 308.207031 C 114.683594 308.058594 116.316406 307.890625 117.953125 307.640625 C 121.21875 307.164062 124.476562 306.46875 127.648438 305.519531 C 130.820312 304.574219 133.894531 303.371094 136.882812 302.023438 L 139.089844 300.953125 L 139.640625 300.6875 L 140.179688 300.394531 L 141.253906 299.8125 C 141.964844 299.414062 142.695312 299.050781 143.386719 298.621094 L 145.46875 297.363281 C 145.816406 297.148438 146.167969 296.949219 146.503906 296.726562 L 147.507812 296.042969 L 149.507812 294.683594 C 150.820312 293.746094 152.09375 292.761719 153.382812 291.808594 L 153.542969 291.6875 L 153.578125 291.65625 C 154.964844 290.390625 156.332031 289.101562 157.707031 287.820312 L 161.824219 283.972656 L 165.921875 280.097656 C 167.292969 278.8125 168.640625 277.503906 170 276.203125 C 171.359375 274.902344 172.714844 273.601562 174.0625 272.285156 C 175.410156 270.976562 176.757812 269.664062 178.097656 268.339844 C 179.441406 267.023438 180.773438 265.695312 182.105469 264.359375 L 184.097656 262.355469 L 186.074219 260.332031 L 183.734375 261.917969 L 181.40625 263.523438 " fill-opacity="1" fill-rule="nonzero"/></g><g clip-path="url(#653a82a035)"><path fill="#bd8e2d" d="M 139.105469 174.273438 L 139.1875 175.453125 L 139.375 177.855469 C 139.523438 179.476562 139.710938 181.109375 139.96875 182.738281 C 140.472656 186 141.191406 189.246094 142.148438 192.402344 C 143.113281 195.5625 144.34375 198.613281 145.695312 201.585938 L 146.78125 203.777344 L 147.054688 204.324219 L 147.347656 204.859375 L 147.9375 205.921875 C 148.339844 206.628906 148.707031 207.351562 149.136719 208.039062 L 150.40625 210.101562 C 150.621094 210.441406 150.828125 210.789062 151.054688 211.125 L 151.742188 212.117188 L 153.113281 214.097656 C 153.570312 214.757812 154.074219 215.382812 154.550781 216.023438 L 156.007812 217.925781 L 156.128906 218.082031 L 156.132812 218.085938 L 158.859375 220.964844 C 159.773438 221.921875 160.675781 222.886719 161.597656 223.835938 C 163.433594 225.742188 165.257812 227.65625 167.113281 229.546875 L 169.894531 232.382812 L 172.6875 235.203125 L 175.511719 238.007812 C 176.453125 238.9375 177.40625 239.863281 178.363281 240.785156 C 177.628906 239.675781 176.890625 238.570312 176.148438 237.476562 L 173.898438 234.191406 L 171.628906 230.929688 L 169.34375 227.679688 C 167.820312 225.515625 166.269531 223.371094 164.726562 221.21875 C 163.957031 220.140625 163.171875 219.078125 162.394531 218.007812 L 160.058594 214.800781 L 160.179688 214.957031 C 159.421875 213.640625 158.621094 212.359375 157.882812 211.042969 L 156.816406 209.046875 L 156.285156 208.054688 C 156.113281 207.722656 155.960938 207.375 155.796875 207.039062 L 154.8125 205.019531 C 154.480469 204.351562 154.210938 203.652344 153.910156 202.972656 L 153.46875 201.945312 L 153.246094 201.433594 L 153.050781 200.914062 L 152.269531 198.832031 C 151.277344 196.042969 150.410156 193.226562 149.796875 190.367188 C 149.175781 187.503906 148.726562 184.625 148.488281 181.710938 C 148.359375 180.253906 148.300781 178.785156 148.238281 177.300781 L 148.183594 175.046875 L 148.167969 173.894531 L 148.160156 172.777344 L 148.160156 172.191406 L 148.167969 171.65625 L 148.191406 170.589844 C 148.21875 169.855469 148.242188 169.128906 148.292969 168.398438 C 148.382812 166.9375 148.488281 165.480469 148.660156 164.03125 C 148.816406 162.578125 149.023438 161.132812 149.273438 159.699219 C 149.519531 158.261719 149.8125 156.835938 150.148438 155.417969 C 150.472656 153.996094 150.832031 152.589844 151.242188 151.191406 L 151.394531 150.667969 L 151.472656 150.40625 L 151.542969 150.179688 L 151.890625 149.070312 C 152.128906 148.359375 152.328125 147.738281 152.582031 147.042969 C 153.558594 144.300781 154.699219 141.625 155.957031 139.011719 C 156.59375 137.707031 157.269531 136.425781 157.976562 135.15625 C 158.695312 133.894531 159.441406 132.652344 160.226562 131.429688 C 160.625 130.824219 161.019531 130.214844 161.429688 129.617188 L 162.042969 128.714844 L 162.710938 127.757812 L 165.375 123.933594 C 167.148438 121.378906 168.945312 118.84375 170.691406 116.269531 L 175.964844 108.578125 C 177.730469 106.019531 179.445312 103.425781 181.191406 100.851562 C 182.925781 98.273438 184.671875 95.699219 186.382812 93.101562 L 188.464844 89.953125 L 190.515625 92.246094 C 192.488281 94.464844 194.5 96.648438 196.488281 98.851562 C 197.488281 99.945312 198.476562 101.054688 199.488281 102.140625 L 202.503906 105.417969 L 205.527344 108.691406 L 208.570312 111.945312 C 209.585938 113.027344 210.59375 114.121094 211.621094 115.195312 L 214.6875 118.429688 C 215.707031 119.507812 216.738281 120.582031 217.769531 121.648438 L 220.867188 124.859375 C 221.90625 125.917969 222.894531 126.964844 223.867188 128.066406 C 224.835938 129.164062 225.792969 130.277344 226.710938 131.429688 C 227.628906 132.578125 228.53125 133.75 229.398438 134.953125 C 230.269531 136.148438 231.113281 137.375 231.9375 138.617188 C 231.410156 137.222656 230.828125 135.839844 230.203125 134.480469 C 229.566406 133.121094 228.894531 131.773438 228.171875 130.453125 C 227.449219 129.132812 226.691406 127.828125 225.882812 126.546875 C 225.074219 125.273438 224.210938 124.003906 223.347656 122.789062 L 220.75 119.160156 C 219.886719 117.949219 219.015625 116.742188 218.140625 115.542969 L 215.515625 111.9375 C 214.644531 110.734375 213.753906 109.546875 212.871094 108.347656 L 210.222656 104.765625 L 207.550781 101.199219 L 204.875 97.636719 C 203.988281 96.445312 203.078125 95.273438 202.179688 94.089844 C 200.375 91.734375 198.589844 89.359375 196.769531 87.019531 L 191.3125 79.980469 L 187.878906 75.546875 L 184.363281 80.265625 L 178.792969 87.746094 C 176.925781 90.234375 175.101562 92.75 173.261719 95.253906 C 171.429688 97.769531 169.570312 100.261719 167.765625 102.789062 L 162.3125 110.355469 C 160.488281 112.871094 158.710938 115.421875 156.90625 117.957031 L 154.210938 121.761719 L 153.539062 122.710938 L 152.832031 123.730469 C 152.355469 124.410156 151.910156 125.109375 151.460938 125.808594 C 150.574219 127.207031 149.734375 128.636719 148.925781 130.085938 C 148.128906 131.539062 147.367188 133.011719 146.652344 134.507812 C 145.945312 136.007812 145.261719 137.519531 144.648438 139.058594 C 144.042969 140.601562 143.464844 142.15625 142.953125 143.734375 C 142.695312 144.5 142.429688 145.367188 142.199219 146.140625 L 141.875 147.261719 L 141.777344 147.59375 L 141.699219 147.894531 L 141.539062 148.496094 C 141.113281 150.09375 140.730469 151.707031 140.414062 153.332031 C 140.097656 154.957031 139.828125 156.589844 139.613281 158.226562 C 139.394531 159.867188 139.226562 161.511719 139.109375 163.160156 C 138.855469 166.457031 138.851562 169.75 139.03125 173.058594 L 139.105469 174.273438 " fill-opacity="1" fill-rule="nonzero"/></g><path fill="#cda146" d="M 192.90625 134.132812 C 194.007812 135.277344 195.144531 136.390625 196.269531 137.515625 C 196.832031 138.074219 197.386719 138.644531 197.964844 139.195312 L 199.679688 140.859375 L 201.378906 142.496094 C 201.929688 143.019531 202.464844 143.558594 202.996094 144.113281 C 203.519531 144.667969 204.046875 145.226562 204.5625 145.800781 L 205.324219 146.667969 L 206.074219 147.558594 C 206.570312 148.152344 207.058594 148.761719 207.53125 149.382812 C 208.011719 150.003906 208.488281 150.628906 208.941406 151.273438 C 209.871094 152.558594 210.742188 153.882812 211.625 155.246094 C 211.550781 154.847656 211.488281 154.445312 211.40625 154.050781 C 211.320312 153.65625 211.242188 153.253906 211.144531 152.859375 C 210.949219 152.074219 210.746094 151.28125 210.503906 150.503906 C 210.265625 149.722656 210.003906 148.945312 209.71875 148.175781 C 209.433594 147.40625 209.125 146.644531 208.800781 145.886719 C 208.476562 145.128906 208.117188 144.386719 207.75 143.644531 C 207.375 142.90625 206.992188 142.167969 206.570312 141.449219 C 206.15625 140.730469 205.726562 140.015625 205.273438 139.3125 L 204.9375 138.785156 L 204.605469 138.285156 L 203.945312 137.292969 L 202.617188 135.300781 C 202.179688 134.636719 201.71875 133.988281 201.273438 133.328125 C 200.371094 132.019531 199.480469 130.699219 198.554688 129.40625 L 197.179688 127.460938 C 196.71875 126.8125 196.265625 126.160156 195.796875 125.519531 C 194.871094 124.230469 193.9375 122.945312 192.996094 121.667969 L 189.777344 117.300781 L 186.085938 121.953125 C 184.824219 123.542969 183.570312 125.136719 182.332031 126.742188 C 181.09375 128.347656 179.859375 129.960938 178.640625 131.578125 C 177.417969 133.195312 176.214844 134.828125 175.007812 136.457031 L 174.335938 137.378906 L 174.058594 137.777344 L 173.1875 139.023438 L 172.96875 139.335938 L 172.734375 139.703125 L 172.269531 140.441406 C 171.96875 140.929688 171.636719 141.433594 171.375 141.910156 L 170.546875 143.363281 C 170.28125 143.851562 170.039062 144.355469 169.785156 144.847656 C 169.53125 145.34375 169.277344 145.84375 169.054688 146.351562 L 168.367188 147.875 C 167.515625 149.9375 166.742188 152.03125 166.140625 154.179688 C 165.972656 154.710938 165.855469 155.253906 165.714844 155.792969 C 165.582031 156.332031 165.4375 156.871094 165.332031 157.417969 L 164.996094 159.050781 C 164.894531 159.597656 164.816406 160.148438 164.726562 160.699219 L 164.601562 161.523438 L 164.503906 162.351562 C 164.445312 162.902344 164.367188 163.453125 164.324219 164.007812 C 164.246094 165.113281 164.15625 166.21875 164.144531 167.328125 C 164.097656 168.4375 164.140625 169.542969 164.15625 170.648438 C 164.179688 171.203125 164.21875 171.753906 164.253906 172.304688 C 164.28125 172.855469 164.335938 173.40625 164.398438 173.953125 C 164.605469 176.152344 164.992188 178.328125 165.484375 180.464844 L 165.875 182.0625 L 166.332031 183.640625 C 166.480469 184.167969 166.648438 184.6875 166.835938 185.203125 C 167.019531 185.71875 167.183594 186.238281 167.382812 186.746094 C 168.152344 188.789062 169.046875 190.773438 170.058594 192.6875 C 171.089844 194.589844 172.210938 196.433594 173.46875 198.167969 C 174.730469 199.902344 176.070312 201.566406 177.546875 203.085938 C 178.265625 203.863281 179.035156 204.589844 179.800781 205.3125 C 180.570312 206.003906 181.320312 206.683594 182.101562 207.355469 C 183.640625 208.707031 185.207031 210.039062 186.828125 211.328125 C 185.851562 209.5 184.824219 207.71875 183.773438 205.957031 C 183.257812 205.070312 182.707031 204.203125 182.1875 203.328125 C 181.699219 202.453125 181.164062 201.628906 180.71875 200.746094 C 180.488281 200.3125 180.246094 199.882812 180.027344 199.445312 L 179.371094 198.132812 C 179.144531 197.703125 178.964844 197.246094 178.761719 196.804688 C 178.566406 196.359375 178.351562 195.929688 178.171875 195.476562 L 177.617188 194.140625 C 177.4375 193.691406 177.28125 193.234375 177.113281 192.785156 C 176.765625 191.894531 176.484375 190.972656 176.179688 190.074219 C 175.914062 189.152344 175.632812 188.246094 175.410156 187.324219 C 175.152344 186.414062 174.960938 185.484375 174.757812 184.5625 C 174.410156 182.710938 174.082031 180.863281 173.910156 179 C 173.730469 177.140625 173.601562 175.285156 173.613281 173.429688 C 173.585938 172.503906 173.65625 171.578125 173.667969 170.65625 C 173.730469 169.734375 173.769531 168.8125 173.878906 167.894531 C 174.042969 166.0625 174.332031 164.242188 174.691406 162.445312 C 175.03125 160.644531 175.523438 158.878906 176.046875 157.128906 L 176.46875 155.824219 C 176.609375 155.390625 176.785156 154.96875 176.933594 154.535156 C 177.226562 153.667969 177.605469 152.835938 177.9375 151.988281 C 178.675781 150.316406 179.464844 148.671875 180.359375 147.078125 C 180.574219 146.660156 180.796875 146.316406 181.015625 145.9375 L 181.347656 145.378906 L 181.511719 145.097656 L 181.714844 144.777344 L 182.539062 143.503906 L 182.644531 143.34375 L 182.695312 143.261719 L 182.707031 143.242188 C 182.757812 143.171875 182.679688 143.285156 182.664062 143.308594 L 182.6875 143.273438 L 182.902344 142.957031 L 183.324219 142.328125 C 184.449219 140.640625 185.578125 138.953125 186.683594 137.253906 C 187.792969 135.558594 188.890625 133.851562 189.980469 132.140625 C 190.109375 131.9375 190.234375 131.734375 190.363281 131.53125 C 190.65625 131.828125 190.949219 132.128906 191.238281 132.429688 L 192.90625 134.132812 " fill-opacity="1" fill-rule="nonzero"/><path fill="#bd8e2d" d="M 199.003906 204.949219 L 198.972656 205.203125 C 199.339844 203.742188 199.671875 202.273438 200.0625 200.828125 L 200.683594 198.675781 L 200.992188 197.597656 C 201.097656 197.242188 201.222656 196.890625 201.339844 196.539062 L 202.046875 194.425781 C 202.277344 193.71875 202.574219 193.039062 202.832031 192.34375 C 203.339844 190.953125 203.953125 189.617188 204.53125 188.265625 C 205.761719 185.601562 207.105469 183.007812 208.65625 180.554688 C 210.191406 178.089844 211.882812 175.738281 213.742188 173.503906 C 214.660156 172.382812 215.644531 171.300781 216.632812 170.203125 L 218.167969 168.558594 L 218.960938 167.726562 L 219.738281 166.929688 C 221.761719 164.855469 223.945312 162.90625 226.191406 161.070312 C 227.316406 160.152344 228.472656 159.265625 229.652344 158.425781 C 230.828125 157.574219 232.03125 156.761719 233.261719 155.988281 C 234.484375 155.210938 235.738281 154.476562 237 153.765625 L 237.710938 153.367188 L 237.917969 153.257812 L 238.945312 152.707031 C 239.609375 152.367188 240.183594 152.070312 240.851562 151.75 C 243.460938 150.476562 246.144531 149.382812 248.878906 148.425781 C 250.242188 147.941406 251.625 147.503906 253.015625 147.097656 C 254.410156 146.703125 255.8125 146.339844 257.226562 146.019531 C 257.933594 145.867188 258.644531 145.710938 259.355469 145.578125 L 260.425781 145.375 L 261.574219 145.171875 L 266.152344 144.324219 L 275.304688 142.621094 L 284.449219 140.851562 L 289.019531 139.964844 L 293.585938 139.042969 C 296.628906 138.421875 299.675781 137.824219 302.714844 137.1875 L 306.890625 136.308594 L 306.78125 138.644531 L 306.601562 142.496094 L 306.445312 146.347656 L 306.289062 150.195312 C 306.234375 151.480469 306.199219 152.765625 306.152344 154.050781 C 306.074219 156.621094 305.96875 159.1875 305.910156 161.757812 C 305.851562 164.332031 305.765625 166.898438 305.726562 169.472656 L 305.65625 173.332031 L 305.605469 177.191406 L 305.570312 181.054688 L 305.558594 184.917969 C 305.5625 186.199219 305.527344 187.472656 305.480469 188.757812 C 305.425781 190.039062 305.351562 191.324219 305.25 192.609375 C 305.628906 191.375 305.972656 190.128906 306.273438 188.867188 C 306.578125 187.609375 306.835938 186.332031 307.070312 185.058594 L 307.75 181.253906 L 308.40625 177.445312 L 309.046875 173.640625 L 309.664062 169.828125 C 310.085938 167.289062 310.457031 164.746094 310.859375 162.207031 C 311.261719 159.664062 311.617188 157.121094 312 154.578125 C 312.183594 153.304688 312.378906 152.035156 312.554688 150.761719 L 313.085938 146.945312 L 313.621094 143.128906 L 314.132812 139.308594 L 315.144531 131.671875 L 315.816406 126.605469 L 310.460938 127.347656 L 301.234375 128.621094 C 298.15625 129.046875 295.085938 129.511719 292.011719 129.957031 L 287.402344 130.628906 L 282.804688 131.339844 L 273.597656 132.761719 L 264.40625 134.25 L 259.8125 134.996094 L 258.664062 135.191406 L 257.441406 135.410156 C 256.628906 135.554688 255.820312 135.726562 255.011719 135.898438 C 253.394531 136.246094 251.789062 136.648438 250.191406 137.089844 C 248.601562 137.539062 247.015625 138.027344 245.449219 138.566406 C 242.324219 139.667969 239.269531 140.960938 236.300781 142.429688 C 235.574219 142.785156 234.769531 143.207031 234.058594 143.582031 L 233.035156 144.136719 L 232.726562 144.304688 L 231.917969 144.765625 C 230.480469 145.582031 229.074219 146.457031 227.695312 147.378906 C 226.316406 148.292969 224.964844 149.25 223.648438 150.246094 C 222.324219 151.242188 221.035156 152.277344 219.777344 153.355469 C 219.144531 153.886719 218.53125 154.441406 217.914062 154.992188 C 217.3125 155.558594 216.703125 156.117188 216.117188 156.699219 C 215.523438 157.273438 214.949219 157.867188 214.371094 158.457031 L 213.496094 159.378906 L 213.0625 159.84375 L 212.671875 160.273438 L 211.859375 161.179688 L 211.078125 162.066406 L 209.5 163.890625 C 208.445312 165.136719 207.417969 166.421875 206.433594 167.757812 C 204.457031 170.417969 202.652344 173.226562 201.058594 176.132812 C 199.480469 179.058594 198.164062 182.097656 196.996094 185.167969 L 196.175781 187.488281 L 195.976562 188.070312 L 195.800781 188.65625 L 195.457031 189.835938 C 195.234375 190.621094 194.976562 191.398438 194.789062 192.191406 L 194.210938 194.5625 C 194.117188 194.957031 194.011719 195.347656 193.925781 195.746094 L 193.691406 196.9375 L 193.234375 199.324219 C 192.972656 200.917969 192.769531 202.515625 192.535156 204.105469 L 192.503906 204.320312 L 192.5 204.359375 L 192.386719 207.179688 L 192.285156 210 L 192.097656 215.636719 L 191.941406 221.28125 C 191.890625 223.164062 191.84375 225.046875 191.816406 226.929688 C 191.78125 228.808594 191.734375 230.691406 191.71875 232.578125 C 191.699219 234.460938 191.664062 236.34375 191.664062 238.230469 C 191.648438 240.113281 191.644531 242 191.652344 243.886719 L 191.667969 246.714844 L 191.710938 249.546875 L 192.257812 246.769531 L 192.78125 243.988281 C 193.125 242.132812 193.457031 240.277344 193.78125 238.417969 C 194.113281 236.566406 194.417969 234.707031 194.734375 232.851562 C 195.054688 230.992188 195.347656 229.132812 195.652344 227.273438 C 195.953125 225.417969 196.246094 223.558594 196.53125 221.699219 L 197.386719 216.117188 L 198.210938 210.535156 L 198.613281 207.742188 L 199.003906 204.949219 " fill-opacity="1" fill-rule="nonzero"/><path fill="#cda146" d="M 264.835938 170.378906 L 264.839844 170.378906 C 264.851562 170.375 264.90625 170.367188 264.835938 170.378906 Z M 277.488281 189.628906 C 277.425781 190.457031 277.328125 191.285156 277.234375 192.121094 C 277.140625 192.953125 277.023438 193.789062 276.894531 194.625 L 276.691406 195.886719 L 276.460938 197.148438 C 276.304688 197.992188 276.125 198.835938 275.945312 199.691406 L 275.660156 200.96875 C 275.554688 201.394531 275.460938 201.832031 275.363281 202.261719 C 275.648438 201.925781 275.945312 201.59375 276.226562 201.253906 C 276.5 200.90625 276.78125 200.554688 277.046875 200.199219 C 277.304688 199.839844 277.578125 199.480469 277.828125 199.113281 L 278.570312 197.996094 C 279.050781 197.246094 279.5 196.46875 279.941406 195.683594 C 280.371094 194.894531 280.773438 194.085938 281.164062 193.265625 C 281.550781 192.449219 281.894531 191.613281 282.230469 190.765625 C 282.390625 190.34375 282.566406 189.917969 282.714844 189.488281 C 282.859375 189.054688 283.011719 188.625 283.148438 188.191406 C 283.421875 187.320312 283.6875 186.441406 283.917969 185.550781 C 284.023438 185.105469 284.136719 184.660156 284.238281 184.210938 L 284.523438 182.867188 C 284.871094 181.171875 285.191406 179.472656 285.503906 177.769531 C 285.816406 176.070312 286.105469 174.367188 286.390625 172.664062 C 286.664062 170.960938 286.929688 169.257812 287.179688 167.550781 C 287.425781 165.84375 287.664062 164.136719 287.882812 162.429688 L 288.675781 156.226562 L 282.101562 157.09375 C 280.707031 157.277344 279.3125 157.480469 277.914062 157.679688 C 276.523438 157.890625 275.125 158.097656 273.738281 158.324219 C 272.34375 158.542969 270.957031 158.78125 269.566406 159.015625 C 268.175781 159.253906 266.789062 159.507812 265.402344 159.757812 L 263.328125 160.148438 L 263.066406 160.195312 L 262.789062 160.25 L 262.660156 160.277344 L 261.113281 160.628906 C 259.820312 160.882812 258.15625 161.402344 256.640625 161.855469 C 256.242188 161.964844 255.902344 162.113281 255.535156 162.242188 L 254.449219 162.648438 L 253.367188 163.054688 C 253.007812 163.195312 252.660156 163.367188 252.308594 163.519531 L 250.203125 164.472656 L 248.167969 165.558594 C 247.832031 165.742188 247.492188 165.917969 247.160156 166.117188 L 246.183594 166.722656 C 245.535156 167.132812 244.878906 167.523438 244.253906 167.960938 C 243.007812 168.851562 241.761719 169.730469 240.609375 170.734375 C 239.421875 171.679688 238.339844 172.753906 237.253906 173.800781 C 236.722656 174.335938 236.21875 174.902344 235.710938 175.457031 L 234.957031 176.296875 C 234.710938 176.582031 234.480469 176.882812 234.25 177.175781 C 233.785156 177.769531 233.316406 178.351562 232.867188 178.949219 C 232.433594 179.5625 232.015625 180.183594 231.601562 180.800781 C 231.171875 181.40625 230.804688 182.058594 230.425781 182.695312 L 229.875 183.664062 L 229.601562 184.144531 L 229.351562 184.640625 C 229.015625 185.300781 228.707031 185.972656 228.386719 186.632812 C 228.070312 187.289062 227.824219 187.996094 227.550781 188.671875 C 227.421875 189.015625 227.285156 189.351562 227.164062 189.695312 C 227.035156 190.035156 226.9375 190.394531 226.828125 190.742188 C 226.617188 191.441406 226.417969 192.144531 226.238281 192.84375 C 226.742188 192.3125 227.230469 191.78125 227.710938 191.25 C 227.949219 190.984375 228.175781 190.710938 228.425781 190.457031 C 228.679688 190.207031 228.925781 189.949219 229.171875 189.695312 L 229.90625 188.933594 C 230.152344 188.683594 230.378906 188.421875 230.640625 188.183594 C 231.148438 187.699219 231.660156 187.222656 232.148438 186.738281 L 232.515625 186.375 L 232.90625 186.035156 L 233.6875 185.351562 C 234.199219 184.898438 234.6875 184.425781 235.234375 184.007812 C 235.765625 183.582031 236.292969 183.15625 236.804688 182.722656 C 237.339844 182.308594 237.890625 181.914062 238.425781 181.511719 L 239.230469 180.910156 L 240.0625 180.347656 C 240.621094 179.984375 241.148438 179.585938 241.710938 179.234375 C 242.847656 178.546875 243.945312 177.820312 245.109375 177.210938 C 245.6875 176.902344 246.234375 176.546875 246.832031 176.273438 C 247.417969 175.988281 248 175.695312 248.578125 175.402344 C 249.160156 175.113281 249.765625 174.878906 250.351562 174.605469 L 251.234375 174.210938 C 251.53125 174.082031 251.839844 173.980469 252.136719 173.859375 L 253.933594 173.15625 L 255.761719 172.550781 C 256.066406 172.449219 256.363281 172.335938 256.671875 172.25 L 257.597656 171.988281 C 258.207031 171.824219 258.835938 171.628906 259.429688 171.480469 C 260.636719 171.226562 261.675781 170.925781 263.160156 170.6875 L 264.199219 170.5 L 264.722656 170.402344 L 264.734375 170.398438 L 264.765625 170.394531 L 264.832031 170.382812 L 265.09375 170.34375 L 267.179688 170.007812 C 268.570312 169.773438 269.960938 169.546875 271.347656 169.296875 C 272.734375 169.050781 274.121094 168.804688 275.507812 168.539062 C 276.257812 168.402344 277.007812 168.257812 277.753906 168.109375 C 277.71875 169.363281 277.683594 170.617188 277.660156 171.875 C 277.632812 173.601562 277.617188 175.328125 277.617188 177.058594 C 277.625 178.785156 277.636719 180.515625 277.675781 182.246094 C 277.691406 183.074219 277.710938 183.875 277.703125 184.695312 C 277.695312 185.511719 277.683594 186.332031 277.644531 187.15625 C 277.605469 187.976562 277.546875 188.800781 277.488281 189.628906 " fill-opacity="1" fill-rule="nonzero"/><path fill="#cda146" d="M 227.957031 261.328125 C 230.234375 259.757812 232.503906 258.191406 234.792969 256.679688 C 237.09375 255.179688 239.378906 253.675781 241.710938 252.273438 C 244.042969 250.875 246.371094 249.496094 248.746094 248.238281 C 251.121094 246.980469 253.503906 245.78125 255.929688 244.71875 C 256.53125 244.453125 257.136719 244.191406 257.75 243.945312 C 258.355469 243.691406 258.96875 243.457031 259.582031 243.222656 C 260.191406 242.984375 260.804688 242.765625 261.414062 242.535156 C 262.03125 242.328125 262.644531 242.105469 263.257812 241.910156 C 265.722656 241.113281 268.214844 240.492188 270.699219 240.035156 C 273.1875 239.589844 275.679688 239.328125 278.15625 239.308594 C 280.628906 239.300781 283.082031 239.453125 285.492188 239.878906 C 287.902344 240.304688 290.265625 240.96875 292.578125 241.8125 C 294.890625 242.664062 297.136719 243.742188 299.3125 244.984375 C 300.398438 245.609375 301.472656 246.273438 302.527344 246.976562 C 303.539062 247.652344 304.722656 248.496094 305.847656 249.285156 L 312.695312 254.035156 C 313.21875 254.394531 313.742188 254.753906 314.265625 255.113281 C 313.210938 256.039062 312.15625 256.964844 311.097656 257.886719 L 309.0625 259.667969 L 307.046875 261.46875 L 305.027344 263.265625 L 304.015625 264.167969 L 303.765625 264.390625 L 303.699219 264.449219 L 303.667969 264.476562 L 303.652344 264.488281 C 303.632812 264.507812 303.78125 264.386719 303.710938 264.445312 L 303.582031 264.554688 L 302.039062 265.871094 L 301.113281 266.605469 C 300.523438 267.105469 299.824219 267.589844 299.164062 268.082031 C 298.835938 268.335938 298.484375 268.550781 298.144531 268.789062 C 297.796875 269.015625 297.457031 269.257812 297.109375 269.480469 L 296.046875 270.132812 L 295.515625 270.457031 L 294.972656 270.761719 L 293.882812 271.371094 L 292.773438 271.949219 C 292.042969 272.347656 291.277344 272.683594 290.523438 273.042969 C 290.144531 273.226562 289.753906 273.371094 289.367188 273.539062 C 288.980469 273.695312 288.597656 273.871094 288.207031 274.015625 C 287.417969 274.300781 286.636719 274.617188 285.835938 274.867188 L 284.636719 275.269531 L 283.421875 275.621094 C 282.617188 275.875 281.789062 276.046875 280.96875 276.261719 C 279.316406 276.617188 277.644531 276.953125 275.953125 277.164062 L 275.320312 277.246094 L 275 277.289062 L 274.921875 277.300781 L 274.902344 277.300781 C 274.996094 277.300781 274.914062 277.300781 274.929688 277.300781 L 274.890625 277.304688 L 274.71875 277.320312 L 273.375 277.441406 L 273.035156 277.472656 L 272.722656 277.492188 L 272.097656 277.523438 C 271.679688 277.542969 271.269531 277.589844 270.835938 277.589844 C 269.117188 277.667969 267.390625 277.621094 265.660156 277.527344 C 263.933594 277.410156 262.195312 277.246094 260.46875 276.960938 C 258.742188 276.683594 257.011719 276.347656 255.304688 275.890625 C 254.441406 275.691406 253.597656 275.421875 252.742188 275.179688 C 252.316406 275.050781 251.898438 274.898438 251.472656 274.765625 C 251.046875 274.628906 250.621094 274.488281 250.203125 274.332031 C 248.511719 273.742188 246.859375 273.03125 245.195312 272.296875 L 246.269531 273.132812 L 246.8125 273.550781 L 247.371094 273.945312 L 248.496094 274.730469 L 249.652344 275.46875 C 250.039062 275.722656 250.433594 275.953125 250.828125 276.183594 C 251.226562 276.414062 251.625 276.644531 252.03125 276.867188 C 252.847656 277.289062 253.65625 277.734375 254.496094 278.121094 C 256.164062 278.921875 257.894531 279.601562 259.65625 280.21875 C 261.417969 280.824219 263.226562 281.308594 265.058594 281.742188 C 266.894531 282.121094 268.753906 282.453125 270.636719 282.652344 C 271.101562 282.714844 271.589844 282.75 272.070312 282.785156 L 273.160156 282.867188 L 273.496094 282.878906 L 274.847656 282.9375 L 275.019531 282.945312 L 275.058594 282.949219 L 275.152344 282.945312 L 275.242188 282.949219 L 276.3125 282.949219 C 277.265625 282.96875 278.214844 282.917969 279.171875 282.882812 C 279.648438 282.875 280.121094 282.816406 280.597656 282.777344 C 281.074219 282.734375 281.550781 282.703125 282.023438 282.644531 C 282.972656 282.515625 283.929688 282.425781 284.871094 282.25 L 286.292969 282.007812 L 287.703125 281.710938 C 288.648438 281.527344 289.570312 281.25 290.507812 281.011719 C 290.972656 280.890625 291.429688 280.738281 291.894531 280.597656 C 292.351562 280.453125 292.820312 280.328125 293.273438 280.160156 C 294.183594 279.835938 295.105469 279.53125 296 279.15625 C 296.449219 278.976562 296.902344 278.800781 297.347656 278.613281 L 299.332031 277.703125 L 299.984375 277.375 L 301.285156 276.710938 C 301.714844 276.484375 302.132812 276.238281 302.558594 276.003906 C 302.980469 275.757812 303.417969 275.535156 303.828125 275.273438 C 304.65625 274.75 305.480469 274.269531 306.324219 273.675781 L 307.574219 272.808594 L 308.652344 271.996094 L 309.195312 271.589844 L 309.328125 271.488281 L 309.535156 271.324219 L 309.800781 271.117188 L 310.867188 270.28125 L 315.121094 266.945312 L 317.234375 265.257812 C 320.046875 263.003906 322.878906 260.769531 325.671875 258.496094 L 330.683594 254.429688 L 325.351562 250.523438 C 323.105469 248.878906 320.855469 247.25 318.601562 245.625 L 311.828125 240.769531 C 309.65625 239.21875 307.09375 237.382812 304.453125 235.910156 C 301.800781 234.410156 299.011719 233.089844 296.09375 232.066406 C 293.183594 231.027344 290.152344 230.285156 287.082031 229.828125 C 284.007812 229.382812 280.894531 229.230469 277.820312 229.390625 C 274.742188 229.558594 271.710938 230.019531 268.761719 230.6875 C 265.8125 231.363281 262.964844 232.316406 260.199219 233.394531 C 257.433594 234.46875 254.785156 235.742188 252.21875 237.128906 C 249.652344 238.511719 247.167969 239.996094 244.78125 241.601562 C 242.394531 243.199219 240.0625 244.847656 237.816406 246.601562 C 235.570312 248.347656 233.371094 250.128906 231.246094 251.984375 C 229.113281 253.832031 227.019531 255.714844 224.980469 257.644531 C 222.933594 259.5625 220.9375 261.527344 218.953125 263.5 C 216.980469 265.484375 215.027344 267.480469 213.101562 269.5 C 211.167969 271.515625 209.25 273.542969 207.347656 275.605469 C 209.707031 274.09375 212.015625 272.511719 214.308594 270.917969 C 216.605469 269.328125 218.875 267.714844 221.152344 266.113281 C 223.417969 264.503906 225.691406 262.910156 227.957031 261.328125 " fill-opacity="1" fill-rule="nonzero"/><g clip-path="url(#b771c13c9a)"><path fill="#bd8e2d" d="M 367.015625 248.691406 L 359.417969 243.292969 C 356.890625 241.488281 354.339844 239.71875 351.800781 237.929688 L 344.171875 232.578125 C 341.632812 230.789062 339.085938 229.007812 336.53125 227.246094 L 328.871094 221.933594 L 325.046875 219.277344 L 324.089844 218.613281 L 323.082031 217.933594 L 322.589844 217.605469 L 322.054688 217.261719 C 321.695312 217.035156 321.335938 216.792969 320.984375 216.578125 C 319.582031 215.703125 318.152344 214.878906 316.707031 214.082031 C 315.253906 213.300781 313.785156 212.554688 312.289062 211.855469 C 309.300781 210.460938 306.238281 209.226562 303.101562 208.226562 C 301.539062 207.722656 299.953125 207.253906 298.371094 206.851562 L 297.808594 206.703125 L 297.199219 206.558594 L 295.972656 206.265625 C 295.167969 206.089844 294.367188 205.910156 293.5625 205.757812 C 290.339844 205.125 287.082031 204.691406 283.808594 204.476562 C 282.175781 204.363281 280.539062 204.304688 278.902344 204.292969 C 277.269531 204.277344 275.632812 204.320312 274.003906 204.402344 L 272.78125 204.472656 L 271.621094 204.550781 C 270.839844 204.605469 270.023438 204.671875 269.226562 204.746094 C 267.617188 204.898438 265.996094 205.074219 264.378906 205.328125 C 261.144531 205.8125 257.929688 206.515625 254.792969 207.449219 C 251.65625 208.390625 248.621094 209.59375 245.664062 210.925781 L 243.472656 211.976562 L 242.925781 212.242188 L 241.332031 213.109375 C 240.625 213.503906 239.902344 213.863281 239.21875 214.285156 L 237.15625 215.539062 C 236.8125 215.75 236.464844 215.949219 236.128906 216.167969 L 235.132812 216.835938 L 233.136719 218.175781 C 232.472656 218.621094 231.847656 219.121094 231.203125 219.589844 L 229.289062 221.019531 L 229.160156 221.117188 L 229.136719 221.136719 L 225.242188 224.707031 L 221.359375 228.292969 L 217.480469 231.886719 L 213.617188 235.5 L 209.765625 239.121094 L 205.925781 242.761719 L 202.105469 246.421875 C 200.828125 247.636719 199.5625 248.871094 198.300781 250.105469 C 199.738281 249.082031 201.175781 248.054688 202.597656 247.011719 L 206.875 243.902344 L 211.132812 240.765625 L 215.378906 237.613281 L 219.617188 234.453125 L 223.835938 231.269531 L 228.050781 228.082031 L 232.253906 224.882812 L 232.105469 224.996094 C 233.402344 224.210938 234.683594 223.402344 235.980469 222.636719 L 237.953125 221.53125 L 238.941406 220.980469 C 239.269531 220.800781 239.609375 220.640625 239.945312 220.46875 L 241.957031 219.460938 C 242.621094 219.121094 243.320312 218.84375 243.996094 218.53125 C 245.351562 217.898438 246.746094 217.375 248.125 216.824219 C 250.910156 215.800781 253.730469 214.910156 256.601562 214.265625 C 259.46875 213.621094 262.359375 213.148438 265.289062 212.894531 C 266.75 212.753906 268.226562 212.683594 269.714844 212.628906 L 271.96875 212.578125 L 273.132812 212.558594 L 274.238281 212.550781 C 275.710938 212.546875 277.179688 212.582031 278.644531 212.667969 C 280.113281 212.75 281.574219 212.875 283.03125 213.050781 C 284.488281 213.21875 285.9375 213.4375 287.378906 213.691406 C 288.824219 213.9375 290.257812 214.234375 291.679688 214.570312 C 292.394531 214.734375 293.101562 214.921875 293.808594 215.105469 L 294.835938 215.390625 L 295.351562 215.535156 L 295.910156 215.703125 C 297.324219 216.121094 298.699219 216.585938 300.070312 217.089844 C 302.8125 218.097656 305.496094 219.242188 308.101562 220.546875 C 309.402344 221.203125 310.679688 221.898438 311.941406 222.625 C 313.195312 223.363281 314.4375 224.125 315.648438 224.925781 C 315.957031 225.125 316.234375 225.324219 316.527344 225.523438 L 316.964844 225.820312 L 317.433594 226.152344 L 319.289062 227.472656 L 323.070312 230.191406 L 330.640625 235.628906 C 333.15625 237.445312 335.6875 239.246094 338.222656 241.042969 L 345.820312 246.4375 C 348.355469 248.230469 350.878906 250.042969 353.425781 251.820312 L 355.539062 253.304688 L 353.304688 255.183594 L 338.539062 267.738281 L 331.191406 274.054688 L 323.84375 280.375 L 320.1875 283.550781 L 319.300781 284.316406 C 319.007812 284.5625 318.722656 284.8125 318.429688 285.050781 C 317.839844 285.535156 317.25 286.015625 316.648438 286.480469 C 314.253906 288.355469 311.726562 290.066406 309.121094 291.640625 C 307.8125 292.425781 306.488281 293.183594 305.128906 293.878906 C 304.457031 294.238281 303.769531 294.574219 303.082031 294.90625 L 302.046875 295.398438 L 301.027344 295.859375 C 299.589844 296.492188 298.195312 297.070312 296.75 297.601562 C 295.316406 298.136719 293.871094 298.644531 292.402344 299.089844 C 289.46875 299.992188 286.472656 300.710938 283.4375 301.25 C 281.921875 301.519531 280.394531 301.746094 278.863281 301.929688 C 278.113281 302.011719 277.378906 302.101562 276.550781 302.164062 L 275.949219 302.214844 L 275.398438 302.253906 L 274.242188 302.332031 C 271.152344 302.492188 268.042969 302.492188 264.9375 302.292969 C 261.835938 302.09375 258.738281 301.695312 255.660156 301.128906 C 254.882812 300.988281 254.136719 300.828125 253.378906 300.671875 L 252.203125 300.402344 L 251.90625 300.332031 L 251.78125 300.304688 L 251.640625 300.269531 L 251.070312 300.125 C 249.546875 299.746094 248.035156 299.316406 246.53125 298.847656 C 243.523438 297.914062 240.578125 296.761719 237.683594 295.46875 C 234.796875 294.164062 231.980469 292.675781 229.234375 291.03125 L 229.144531 290.976562 L 229.132812 290.96875 L 226.265625 289.207031 L 223.292969 287.394531 L 220.316406 285.582031 L 217.332031 283.785156 C 218.226562 284.527344 219.117188 285.277344 220.019531 286.003906 L 222.722656 288.199219 L 225.425781 290.398438 L 226.777344 291.496094 L 228.144531 292.585938 L 228.242188 292.640625 L 228.253906 292.652344 L 228.164062 292.59375 C 229.453125 293.597656 230.777344 294.574219 232.128906 295.5 C 233.488281 296.425781 234.882812 297.300781 236.296875 298.144531 C 239.132812 299.828125 242.09375 301.3125 245.140625 302.617188 C 246.664062 303.273438 248.214844 303.871094 249.78125 304.417969 L 250.371094 304.621094 L 250.515625 304.675781 L 250.683594 304.730469 L 250.972656 304.824219 L 252.125 305.203125 C 252.929688 305.449219 253.742188 305.699219 254.542969 305.917969 C 257.746094 306.832031 261.023438 307.511719 264.335938 307.992188 C 267.648438 308.480469 271 308.75 274.363281 308.796875 L 275.621094 308.804688 L 276.285156 308.804688 L 276.890625 308.796875 C 277.300781 308.785156 277.679688 308.789062 278.117188 308.769531 L 279.40625 308.71875 C 281.09375 308.632812 282.769531 308.503906 284.449219 308.324219 C 287.804688 307.933594 291.140625 307.34375 294.429688 306.539062 C 296.078125 306.144531 297.710938 305.679688 299.332031 305.183594 C 300.949219 304.679688 302.566406 304.097656 304.113281 303.507812 L 305.324219 303.03125 L 306.503906 302.539062 C 307.285156 302.207031 308.070312 301.871094 308.839844 301.511719 C 310.390625 300.804688 311.910156 300.035156 313.414062 299.230469 C 316.417969 297.613281 319.308594 295.78125 322.082031 293.785156 C 322.777344 293.289062 323.460938 292.777344 324.140625 292.257812 C 324.484375 292.003906 324.8125 291.734375 325.148438 291.46875 L 326.128906 290.691406 L 329.90625 287.652344 L 337.421875 281.539062 L 344.9375 275.421875 L 352.417969 269.265625 L 359.902344 263.113281 L 367.351562 256.917969 L 372.53125 252.605469 L 367.015625 248.691406 " fill-opacity="1" fill-rule="nonzero"/></g><path fill="#bd8e2d" d="M 63.0625 141.15625 L 63.742188 145.777344 C 64.195312 148.855469 64.632812 151.933594 65.105469 155.011719 L 66.527344 164.234375 C 66.992188 167.3125 67.503906 170.378906 67.996094 173.453125 L 69.488281 182.664062 L 70.269531 187.265625 L 70.464844 188.414062 L 70.679688 189.617188 L 70.785156 190.195312 L 70.910156 190.824219 C 70.996094 191.242188 71.078125 191.671875 71.167969 192.074219 C 71.515625 193.695312 71.921875 195.304688 72.355469 196.90625 C 72.804688 198.503906 73.316406 200.085938 73.863281 201.652344 C 74.964844 204.78125 76.25 207.84375 77.71875 210.816406 C 78.449219 212.300781 79.222656 213.777344 80.054688 215.195312 L 80.347656 215.703125 L 80.671875 216.242188 L 81.332031 217.335938 C 81.773438 218.035156 82.214844 218.738281 82.675781 219.425781 C 83.585938 220.808594 84.539062 222.164062 85.535156 223.484375 C 86.527344 224.808594 87.554688 226.109375 88.640625 227.355469 C 89.714844 228.613281 90.832031 229.828125 91.984375 231.011719 C 93.132812 232.203125 94.320312 233.347656 95.539062 234.457031 L 96.453125 235.285156 L 97.324219 236.058594 C 97.914062 236.582031 98.539062 237.121094 99.15625 237.640625 C 100.410156 238.683594 101.6875 239.722656 103.015625 240.707031 C 105.667969 242.683594 108.453125 244.511719 111.371094 246.082031 C 114.28125 247.664062 117.308594 248.984375 120.367188 250.160156 L 122.6875 250.964844 L 123.265625 251.167969 L 123.851562 251.34375 L 125.023438 251.691406 C 125.808594 251.914062 126.582031 252.171875 127.371094 252.363281 L 129.734375 252.945312 C 130.128906 253.039062 130.519531 253.144531 130.914062 253.230469 L 132.105469 253.460938 L 134.484375 253.914062 C 136.070312 254.183594 137.664062 254.390625 139.25 254.625 L 139.453125 254.65625 L 139.496094 254.660156 C 141.375 254.742188 143.253906 254.808594 145.132812 254.875 L 150.765625 255.074219 L 156.40625 255.234375 L 159.226562 255.308594 L 162.046875 255.367188 C 163.929688 255.410156 165.808594 255.453125 167.691406 255.472656 L 170.511719 255.515625 L 173.335938 255.542969 C 175.21875 255.5625 177.105469 255.566406 178.988281 255.566406 L 181.816406 255.558594 L 184.644531 255.523438 L 181.867188 254.984375 L 179.085938 254.46875 C 177.234375 254.128906 175.378906 253.796875 173.523438 253.476562 L 170.738281 252.996094 L 167.953125 252.53125 C 166.097656 252.214844 164.242188 251.917969 162.382812 251.621094 L 159.597656 251.175781 L 156.808594 250.746094 L 151.234375 249.890625 L 145.652344 249.074219 C 143.792969 248.804688 141.933594 248.53125 140.070312 248.277344 L 140.320312 248.308594 C 138.859375 247.941406 137.394531 247.613281 135.953125 247.222656 L 133.800781 246.59375 L 132.726562 246.285156 C 132.371094 246.179688 132.019531 246.050781 131.667969 245.9375 L 129.554688 245.230469 C 128.851562 245 128.171875 244.703125 127.480469 244.445312 L 126.445312 244.046875 L 125.929688 243.847656 L 125.425781 243.625 L 123.40625 242.734375 C 120.746094 241.5 118.152344 240.152344 115.699219 238.601562 C 113.253906 237.035156 110.894531 235.359375 108.664062 233.496094 C 107.542969 232.570312 106.457031 231.589844 105.371094 230.585938 L 103.742188 229.046875 L 102.898438 228.242188 L 102.117188 227.472656 C 101.078125 226.449219 100.066406 225.402344 99.09375 224.316406 C 98.117188 223.234375 97.171875 222.125 96.265625 220.984375 C 95.808594 220.421875 95.371094 219.839844 94.921875 219.269531 C 94.488281 218.683594 94.046875 218.109375 93.628906 217.511719 C 92.78125 216.332031 91.96875 215.125 91.199219 213.894531 C 90.804688 213.28125 90.4375 212.65625 90.0625 212.035156 L 89.539062 211.121094 L 89.273438 210.65625 L 88.992188 210.144531 C 88.285156 208.859375 87.625 207.578125 86.988281 206.269531 C 85.722656 203.65625 84.621094 200.964844 83.675781 198.222656 C 82.742188 195.476562 81.9375 192.683594 81.304688 189.847656 C 81.222656 189.492188 81.160156 189.160156 81.082031 188.8125 L 80.972656 188.300781 L 80.867188 187.734375 L 80.664062 186.640625 L 80.457031 185.492188 L 79.644531 180.898438 L 77.957031 171.71875 C 77.390625 168.660156 76.839844 165.597656 76.242188 162.546875 L 74.480469 153.378906 C 73.890625 150.324219 73.265625 147.277344 72.660156 144.222656 L 71.890625 140.378906 C 72.988281 140.441406 74.082031 140.503906 75.179688 140.554688 L 84.136719 141.003906 L 93.097656 141.390625 C 96.085938 141.523438 99.078125 141.613281 102.066406 141.726562 C 105.054688 141.835938 108.046875 141.90625 111.039062 141.996094 L 115.527344 142.101562 L 120.019531 142.1875 C 121.488281 142.207031 122.960938 142.269531 124.429688 142.375 C 125.902344 142.46875 127.375 142.609375 128.847656 142.789062 C 130.320312 142.960938 131.792969 143.175781 133.261719 143.429688 C 134.734375 143.683594 136.199219 143.96875 137.667969 144.292969 C 136.300781 143.671875 134.90625 143.097656 133.492188 142.574219 C 132.078125 142.050781 130.640625 141.574219 129.1875 141.140625 C 127.734375 140.714844 126.265625 140.328125 124.785156 139.984375 C 123.300781 139.648438 121.804688 139.359375 120.296875 139.109375 L 115.863281 138.390625 L 111.425781 137.6875 C 108.46875 137.238281 105.511719 136.769531 102.550781 136.34375 C 99.589844 135.917969 96.632812 135.46875 93.667969 135.0625 L 84.78125 133.835938 L 75.890625 132.667969 C 74.40625 132.46875 72.921875 132.292969 71.441406 132.105469 L 66.992188 131.554688 L 61.625 130.890625 L 62.414062 136.535156 L 63.0625 141.15625 " fill-opacity="1" fill-rule="nonzero"/><path fill="#cda146" d="M 136 220.617188 C 135.546875 220.402344 135.101562 220.175781 134.652344 219.964844 C 134.199219 219.761719 133.761719 219.523438 133.320312 219.292969 C 132.882812 219.058594 132.4375 218.84375 132.011719 218.585938 C 130.28125 217.621094 128.628906 216.539062 127.019531 215.414062 C 125.414062 214.289062 123.898438 213.042969 122.433594 211.761719 L 121.351562 210.785156 L 120.304688 209.765625 C 119.949219 209.4375 119.621094 209.078125 119.285156 208.726562 C 118.949219 208.375 118.609375 208.03125 118.292969 207.664062 L 117.320312 206.582031 L 116.398438 205.464844 C 116.085938 205.097656 115.796875 204.707031 115.5 204.328125 C 115.207031 203.945312 114.902344 203.570312 114.632812 203.167969 C 113.476562 201.621094 112.464844 199.976562 111.492188 198.320312 L 110.789062 197.0625 L 110.128906 195.777344 C 109.898438 195.355469 109.710938 194.914062 109.503906 194.476562 C 109.300781 194.042969 109.085938 193.613281 108.910156 193.164062 C 108.117188 191.414062 107.5 189.589844 106.90625 187.757812 L 106.496094 186.375 L 106.136719 184.976562 L 105.953125 184.277344 L 105.804688 183.570312 L 105.652344 182.863281 C 105.601562 182.625 105.550781 182.40625 105.5 182.132812 C 105.082031 180.035156 104.667969 177.941406 104.230469 175.847656 C 103.796875 173.757812 103.355469 171.667969 102.890625 169.578125 C 102.8125 169.230469 102.734375 168.882812 102.65625 168.53125 L 106.566406 168.585938 C 108.191406 168.621094 109.824219 168.597656 111.449219 168.605469 C 113.078125 168.617188 114.707031 168.582031 116.335938 168.566406 L 118.753906 168.53125 L 119.898438 168.53125 L 121.066406 168.5625 C 121.847656 168.597656 122.636719 168.625 123.417969 168.683594 C 124.207031 168.738281 124.992188 168.820312 125.78125 168.902344 C 126.574219 168.984375 127.363281 169.085938 128.152344 169.210938 C 128.945312 169.324219 129.742188 169.457031 130.53125 169.609375 C 132.125 169.894531 133.710938 170.261719 135.320312 170.648438 L 134.308594 169.929688 C 133.960938 169.703125 133.617188 169.46875 133.265625 169.246094 C 132.5625 168.808594 131.84375 168.382812 131.113281 167.984375 C 130.378906 167.589844 129.636719 167.199219 128.878906 166.84375 C 128.117188 166.488281 127.347656 166.152344 126.566406 165.832031 C 125.789062 165.511719 124.992188 165.230469 124.191406 164.953125 C 123.390625 164.679688 122.582031 164.421875 121.761719 164.195312 L 120.527344 163.871094 L 119.257812 163.570312 L 118.65625 163.4375 L 118.210938 163.339844 L 118.03125 163.308594 L 116.832031 163.070312 C 115.230469 162.761719 113.632812 162.4375 112.03125 162.15625 C 110.429688 161.871094 108.828125 161.558594 107.222656 161.296875 L 102.414062 160.492188 C 100.808594 160.238281 99.203125 159.984375 97.597656 159.746094 L 92.28125 158.960938 L 92.945312 164.808594 C 93.1875 166.933594 93.445312 169.058594 93.714844 171.179688 C 93.980469 173.300781 94.269531 175.417969 94.566406 177.535156 C 94.855469 179.648438 95.171875 181.761719 95.488281 183.875 C 95.523438 184.128906 95.582031 184.433594 95.632812 184.71875 L 95.785156 185.582031 L 95.941406 186.445312 L 96.125 187.304688 C 96.253906 187.878906 96.375 188.453125 96.519531 189.019531 L 96.984375 190.71875 C 97.128906 191.285156 97.324219 191.839844 97.496094 192.402344 C 97.679688 192.957031 97.851562 193.519531 98.066406 194.066406 L 98.679688 195.714844 L 99.363281 197.339844 C 100.320312 199.480469 101.363281 201.589844 102.59375 203.585938 C 102.886719 204.09375 103.210938 204.585938 103.527344 205.078125 C 103.851562 205.5625 104.160156 206.0625 104.507812 206.535156 L 105.527344 207.960938 C 105.882812 208.429688 106.246094 208.886719 106.609375 209.34375 C 108.078125 211.164062 109.632812 212.914062 111.328125 214.515625 C 113.023438 216.113281 114.785156 217.640625 116.671875 218.996094 C 117.128906 219.351562 117.613281 219.671875 118.089844 220 C 118.570312 220.324219 119.046875 220.65625 119.542969 220.957031 C 120.035156 221.257812 120.519531 221.570312 121.019531 221.867188 L 122.527344 222.714844 C 123.027344 223.003906 123.546875 223.253906 124.0625 223.515625 C 124.578125 223.773438 125.089844 224.035156 125.617188 224.261719 C 126.144531 224.496094 126.664062 224.742188 127.195312 224.964844 L 128.796875 225.589844 C 130.949219 226.386719 133.121094 227.101562 135.347656 227.582031 C 137.566406 228.085938 139.804688 228.460938 142.050781 228.640625 C 142.601562 228.703125 143.179688 228.738281 143.753906 228.757812 L 144.613281 228.796875 C 144.902344 228.8125 145.1875 228.824219 145.449219 228.816406 L 147.054688 228.8125 L 147.257812 228.808594 L 147.332031 228.808594 C 147.332031 228.808594 147.433594 228.820312 147.402344 228.8125 L 147.503906 228.8125 L 148.710938 228.765625 C 150.855469 228.691406 153.007812 228.59375 155.15625 228.464844 C 157.308594 228.335938 159.460938 228.175781 161.621094 227.949219 C 159.535156 227.339844 157.445312 226.796875 155.351562 226.285156 C 153.257812 225.773438 151.164062 225.289062 149.066406 224.832031 L 148.277344 224.65625 L 147.886719 224.570312 L 147.789062 224.550781 C 147.738281 224.542969 147.824219 224.550781 147.808594 224.550781 L 147.78125 224.542969 L 147.734375 224.53125 L 147.539062 224.488281 L 145.96875 224.125 C 145.703125 224.070312 145.460938 224 145.222656 223.929688 L 144.5 223.722656 C 144.023438 223.585938 143.546875 223.464844 143.054688 223.300781 L 141.605469 222.84375 L 140.179688 222.332031 C 139.703125 222.167969 139.234375 221.972656 138.765625 221.792969 C 138.300781 221.605469 137.828125 221.4375 137.371094 221.222656 L 136 220.617188 " fill-opacity="1" fill-rule="nonzero"/><g clip-path="url(#208e61b4ff)"><path fill="#cda146" d="M 12.980469 221.96875 C 12.449219 221.964844 12 221.777344 11.628906 221.40625 C 11.460938 221.226562 11.332031 221.023438 11.242188 220.796875 C 11.152344 220.570312 11.105469 220.335938 11.105469 220.089844 C 11.105469 219.847656 11.152344 219.609375 11.242188 219.382812 C 11.332031 219.15625 11.460938 218.953125 11.628906 218.777344 C 11.804688 218.582031 12.015625 218.445312 12.265625 218.363281 C 12.613281 218.21875 12.972656 218.183594 13.34375 218.257812 C 13.710938 218.335938 14.027344 218.507812 14.292969 218.777344 C 14.472656 218.949219 14.613281 219.148438 14.710938 219.375 C 14.8125 219.601562 14.859375 219.84375 14.859375 220.089844 C 14.859375 220.339844 14.8125 220.578125 14.710938 220.804688 C 14.613281 221.035156 14.472656 221.234375 14.292969 221.40625 C 13.9375 221.785156 13.5 221.972656 12.980469 221.96875 Z M 12.980469 221.96875 " fill-opacity="1" fill-rule="nonzero"/></g><path fill="#cda146" d="M 13.730469 203.238281 C 13.484375 203.210938 13.25 203.136719 13.035156 203.015625 C 12.820312 202.898438 12.632812 202.742188 12.476562 202.546875 C 12.324219 202.355469 12.210938 202.140625 12.140625 201.902344 C 12.074219 201.664062 12.050781 201.421875 12.078125 201.175781 C 12.105469 200.929688 12.179688 200.699219 12.300781 200.480469 C 12.417969 200.265625 12.578125 200.078125 12.769531 199.925781 C 12.964844 199.769531 13.179688 199.65625 13.417969 199.589844 C 13.652344 199.519531 13.894531 199.496094 14.140625 199.523438 C 14.386719 199.550781 14.621094 199.625 14.835938 199.746094 C 15.050781 199.867188 15.238281 200.023438 15.394531 200.214844 C 15.546875 200.410156 15.660156 200.625 15.730469 200.863281 C 15.796875 201.101562 15.820312 201.34375 15.792969 201.589844 C 15.765625 201.816406 15.699219 202.035156 15.589844 202.238281 C 15.484375 202.441406 15.34375 202.621094 15.171875 202.773438 C 14.996094 202.925781 14.800781 203.039062 14.585938 203.121094 C 14.371094 203.203125 14.148438 203.242188 13.917969 203.238281 Z M 368.015625 201.25 C 367.988281 201.003906 368.011719 200.761719 368.082031 200.523438 C 368.148438 200.289062 368.261719 200.070312 368.417969 199.878906 C 368.570312 199.683594 368.757812 199.527344 368.972656 199.410156 C 369.191406 199.289062 369.421875 199.214844 369.667969 199.1875 C 369.917969 199.160156 370.160156 199.183594 370.402344 199.253906 C 370.640625 199.328125 370.859375 199.441406 371.050781 199.601562 C 371.246094 199.757812 371.402344 199.949219 371.519531 200.167969 C 371.636719 200.390625 371.707031 200.625 371.730469 200.875 C 371.757812 201.125 371.734375 201.367188 371.664062 201.609375 C 371.589844 201.847656 371.476562 202.066406 371.316406 202.257812 C 371.160156 202.453125 370.96875 202.609375 370.75 202.726562 C 370.527344 202.84375 370.292969 202.914062 370.042969 202.9375 C 369.796875 202.964844 369.554688 202.941406 369.316406 202.871094 C 369.078125 202.796875 368.863281 202.683594 368.671875 202.523438 C 368.480469 202.363281 368.328125 202.175781 368.214844 201.953125 C 368.101562 201.734375 368.035156 201.5 368.015625 201.25 Z M 16.429688 184.699219 C 16.175781 184.664062 15.941406 184.578125 15.722656 184.445312 C 15.5 184.3125 15.316406 184.140625 15.167969 183.929688 C 15.019531 183.722656 14.917969 183.492188 14.863281 183.238281 C 14.808594 182.988281 14.804688 182.738281 14.855469 182.484375 C 14.90625 182.242188 15 182.019531 15.140625 181.8125 C 15.277344 181.609375 15.453125 181.441406 15.660156 181.304688 C 15.871094 181.171875 16.097656 181.082031 16.339844 181.039062 C 16.585938 180.996094 16.828125 181.003906 17.070312 181.058594 C 17.3125 181.109375 17.539062 181.203125 17.746094 181.34375 C 17.949219 181.480469 18.121094 181.65625 18.261719 181.863281 C 18.398438 182.070312 18.488281 182.296875 18.535156 182.542969 C 18.585938 182.785156 18.582031 183.03125 18.53125 183.273438 L 18.609375 183.273438 C 18.511719 183.703125 18.289062 184.054688 17.945312 184.328125 C 17.601562 184.601562 17.210938 184.738281 16.769531 184.738281 L 16.429688 184.738281 Z M 365.089844 182.972656 C 365.035156 182.730469 365.027344 182.484375 365.074219 182.238281 C 365.117188 181.992188 365.210938 181.761719 365.347656 181.554688 C 365.488281 181.34375 365.660156 181.171875 365.867188 181.035156 C 366.078125 180.894531 366.304688 180.804688 366.550781 180.757812 C 366.792969 180.707031 367.035156 180.707031 367.277344 180.75 C 367.519531 180.796875 367.746094 180.886719 367.953125 181.019531 C 368.160156 181.152344 368.332031 181.320312 368.472656 181.519531 C 368.613281 181.722656 368.710938 181.945312 368.765625 182.183594 C 368.816406 182.429688 368.816406 182.671875 368.769531 182.917969 C 368.722656 183.160156 368.628906 183.386719 368.492188 183.59375 C 368.355469 183.804688 368.183594 183.976562 367.976562 184.117188 C 367.773438 184.253906 367.546875 184.351562 367.304688 184.398438 L 366.925781 184.398438 C 366.492188 184.402344 366.105469 184.273438 365.761719 184.003906 C 365.417969 183.738281 365.191406 183.394531 365.089844 182.972656 Z M 21.085938 166.574219 C 20.851562 166.492188 20.640625 166.367188 20.457031 166.207031 C 20.269531 166.042969 20.121094 165.851562 20.007812 165.632812 C 19.898438 165.410156 19.832031 165.179688 19.808594 164.933594 C 19.785156 164.6875 19.8125 164.445312 19.882812 164.207031 C 19.972656 163.96875 20.101562 163.753906 20.277344 163.570312 C 20.453125 163.382812 20.65625 163.238281 20.890625 163.136719 C 21.125 163.035156 21.367188 162.980469 21.625 162.976562 C 21.878906 162.976562 22.125 163.023438 22.359375 163.121094 C 22.597656 163.195312 22.808594 163.316406 23 163.476562 C 23.1875 163.640625 23.339844 163.832031 23.449219 164.054688 C 23.5625 164.273438 23.628906 164.511719 23.648438 164.757812 C 23.667969 165.003906 23.640625 165.246094 23.5625 165.484375 C 23.4375 165.867188 23.214844 166.175781 22.890625 166.410156 C 22.5625 166.648438 22.199219 166.761719 21.796875 166.761719 C 21.546875 166.757812 21.308594 166.695312 21.085938 166.574219 Z M 360.132812 165.070312 C 360.050781 164.835938 360.019531 164.59375 360.035156 164.34375 C 360.054688 164.09375 360.117188 163.855469 360.230469 163.632812 C 360.34375 163.410156 360.496094 163.21875 360.6875 163.058594 C 360.878906 162.898438 361.097656 162.78125 361.335938 162.707031 C 361.570312 162.636719 361.8125 162.609375 362.058594 162.632812 C 362.304688 162.652344 362.539062 162.71875 362.757812 162.832031 C 362.980469 162.945312 363.171875 163.09375 363.332031 163.277344 C 363.496094 163.464844 363.617188 163.675781 363.699219 163.90625 C 363.777344 164.144531 363.804688 164.386719 363.785156 164.632812 C 363.765625 164.882812 363.703125 165.117188 363.589844 165.339844 C 363.476562 165.558594 363.324219 165.75 363.136719 165.914062 C 362.949219 166.074219 362.734375 166.195312 362.5 166.273438 C 362.300781 166.3125 362.097656 166.3125 361.898438 166.273438 C 361.507812 166.273438 361.152344 166.167969 360.828125 165.945312 C 360.507812 165.726562 360.273438 165.433594 360.132812 165.070312 Z M 27.617188 149.007812 C 27.390625 148.90625 27.191406 148.765625 27.019531 148.582031 C 26.851562 148.402344 26.722656 148.195312 26.632812 147.964844 C 26.546875 147.730469 26.507812 147.492188 26.515625 147.242188 C 26.519531 146.996094 26.574219 146.757812 26.675781 146.53125 C 26.78125 146.304688 26.921875 146.105469 27.101562 145.9375 C 27.28125 145.765625 27.488281 145.636719 27.722656 145.550781 C 27.953125 145.460938 28.195312 145.421875 28.441406 145.429688 C 28.691406 145.4375 28.925781 145.492188 29.152344 145.59375 C 29.382812 145.691406 29.585938 145.832031 29.757812 146.011719 C 29.929688 146.191406 30.0625 146.398438 30.148438 146.632812 C 30.238281 146.867188 30.277344 147.105469 30.269531 147.355469 C 30.257812 147.605469 30.199219 147.84375 30.09375 148.070312 C 29.949219 148.410156 29.722656 148.683594 29.417969 148.886719 C 29.109375 149.089844 28.773438 149.195312 28.402344 149.195312 C 28.128906 149.1875 27.867188 149.125 27.617188 149.007812 Z M 353.605469 147.808594 C 353.503906 147.582031 353.449219 147.34375 353.441406 147.09375 C 353.433594 146.847656 353.472656 146.605469 353.5625 146.375 C 353.648438 146.144531 353.777344 145.9375 353.949219 145.753906 C 354.117188 145.574219 354.316406 145.433594 354.542969 145.332031 C 354.769531 145.222656 355.007812 145.164062 355.253906 145.15625 C 355.503906 145.144531 355.746094 145.183594 355.980469 145.273438 C 356.214844 145.359375 356.421875 145.492188 356.601562 145.664062 C 356.78125 145.835938 356.921875 146.039062 357.019531 146.269531 C 357.125 146.496094 357.183594 146.730469 357.195312 146.980469 C 357.203125 147.230469 357.164062 147.472656 357.078125 147.707031 C 356.988281 147.941406 356.859375 148.148438 356.683594 148.328125 C 356.511719 148.507812 356.3125 148.648438 356.082031 148.746094 C 355.832031 148.800781 355.582031 148.800781 355.332031 148.746094 C 354.980469 148.761719 354.648438 148.683594 354.339844 148.515625 C 354.027344 148.347656 353.785156 148.109375 353.605469 147.808594 Z M 35.945312 132.230469 C 35.730469 132.109375 35.546875 131.953125 35.394531 131.753906 C 35.242188 131.558594 35.132812 131.339844 35.070312 131.097656 C 35.003906 130.859375 34.992188 130.617188 35.027344 130.367188 C 35.0625 130.121094 35.144531 129.894531 35.273438 129.679688 C 35.394531 129.464844 35.550781 129.277344 35.75 129.125 C 35.945312 128.972656 36.164062 128.867188 36.40625 128.800781 C 36.644531 128.738281 36.886719 128.722656 37.132812 128.757812 C 37.382812 128.792969 37.609375 128.875 37.824219 129.003906 C 38.035156 129.128906 38.21875 129.289062 38.367188 129.488281 C 38.519531 129.683594 38.625 129.898438 38.691406 130.136719 C 38.757812 130.375 38.78125 130.617188 38.753906 130.863281 C 38.726562 131.109375 38.652344 131.339844 38.535156 131.554688 C 38.363281 131.847656 38.128906 132.078125 37.835938 132.246094 C 37.539062 132.414062 37.222656 132.496094 36.886719 132.496094 C 36.546875 132.496094 36.234375 132.410156 35.945312 132.230469 Z M 345.121094 131.332031 C 345 131.113281 344.921875 130.882812 344.886719 130.632812 C 344.855469 130.386719 344.871094 130.140625 344.933594 129.898438 C 344.996094 129.65625 345.101562 129.4375 345.25 129.234375 C 345.402344 129.035156 345.582031 128.871094 345.796875 128.742188 C 346.019531 128.625 346.253906 128.550781 346.5 128.523438 C 346.75 128.496094 346.992188 128.515625 347.234375 128.582031 C 347.476562 128.648438 347.695312 128.757812 347.894531 128.90625 C 348.09375 129.058594 348.257812 129.242188 348.386719 129.453125 C 348.503906 129.671875 348.574219 129.902344 348.601562 130.148438 C 348.628906 130.394531 348.609375 130.636719 348.542969 130.875 C 348.476562 131.113281 348.371094 131.328125 348.21875 131.523438 C 348.070312 131.71875 347.886719 131.882812 347.675781 132.007812 C 347.382812 132.175781 347.070312 132.261719 346.734375 132.269531 C 346.402344 132.269531 346.09375 132.183594 345.804688 132.015625 C 345.515625 131.847656 345.289062 131.621094 345.121094 131.332031 Z M 45.96875 116.320312 C 45.769531 116.167969 45.605469 115.988281 45.480469 115.777344 C 45.351562 115.5625 45.269531 115.335938 45.230469 115.089844 C 45.191406 114.84375 45.199219 114.601562 45.257812 114.359375 C 45.3125 114.117188 45.414062 113.894531 45.554688 113.691406 C 45.703125 113.496094 45.886719 113.332031 46.097656 113.203125 C 46.3125 113.078125 46.539062 112.992188 46.785156 112.953125 C 47.03125 112.917969 47.273438 112.925781 47.515625 112.980469 C 47.757812 113.039062 47.980469 113.136719 48.183594 113.277344 C 48.378906 113.429688 48.542969 113.609375 48.671875 113.824219 C 48.796875 114.035156 48.878906 114.265625 48.917969 114.507812 C 48.957031 114.753906 48.949219 114.996094 48.894531 115.238281 C 48.835938 115.480469 48.738281 115.703125 48.59375 115.90625 C 48.222656 116.441406 47.707031 116.703125 47.054688 116.695312 C 46.675781 116.722656 46.328125 116.636719 46.003906 116.433594 Z M 334.953125 115.679688 C 334.808594 115.480469 334.710938 115.261719 334.65625 115.023438 C 334.601562 114.785156 334.59375 114.542969 334.628906 114.300781 C 334.667969 114.058594 334.753906 113.835938 334.878906 113.625 C 335.007812 113.414062 335.167969 113.238281 335.363281 113.089844 C 335.5625 112.9375 335.785156 112.832031 336.027344 112.769531 C 336.273438 112.707031 336.519531 112.699219 336.765625 112.734375 C 337.015625 112.773438 337.246094 112.863281 337.457031 112.996094 C 337.671875 113.128906 337.847656 113.296875 337.992188 113.503906 C 338.132812 113.703125 338.230469 113.925781 338.289062 114.164062 C 338.34375 114.402344 338.351562 114.640625 338.3125 114.882812 C 338.273438 115.125 338.191406 115.351562 338.0625 115.5625 C 337.9375 115.769531 337.777344 115.949219 337.578125 116.09375 C 337.261719 116.347656 336.898438 116.472656 336.492188 116.46875 C 335.894531 116.480469 335.40625 116.257812 335.027344 115.792969 Z M 57.640625 101.757812 C 57.464844 101.585938 57.328125 101.382812 57.230469 101.15625 C 57.136719 100.929688 57.085938 100.691406 57.085938 100.445312 C 57.085938 100.195312 57.136719 99.960938 57.230469 99.730469 C 57.328125 99.503906 57.464844 99.304688 57.640625 99.128906 C 57.816406 98.953125 58.019531 98.816406 58.25 98.71875 C 58.480469 98.625 58.722656 98.574219 58.972656 98.574219 C 59.222656 98.574219 59.460938 98.625 59.695312 98.71875 C 59.925781 98.816406 60.128906 98.953125 60.304688 99.128906 C 60.480469 99.304688 60.617188 99.511719 60.714844 99.742188 C 60.8125 99.972656 60.859375 100.210938 60.859375 100.460938 C 60.859375 100.710938 60.8125 100.953125 60.714844 101.183594 C 60.617188 101.414062 60.480469 101.617188 60.304688 101.796875 C 59.929688 102.199219 59.464844 102.398438 58.914062 102.394531 C 58.402344 102.359375 57.976562 102.144531 57.640625 101.757812 Z M 323.355469 101.417969 C 323.171875 101.25 323.035156 101.050781 322.933594 100.820312 C 322.835938 100.59375 322.785156 100.355469 322.785156 100.105469 C 322.785156 99.855469 322.835938 99.617188 322.933594 99.390625 C 323.035156 99.160156 323.171875 98.960938 323.355469 98.792969 C 323.527344 98.617188 323.726562 98.480469 323.957031 98.382812 C 324.183594 98.289062 324.421875 98.242188 324.667969 98.242188 C 324.914062 98.242188 325.152344 98.289062 325.378906 98.382812 C 325.609375 98.480469 325.808594 98.617188 325.980469 98.792969 C 326.164062 98.960938 326.304688 99.160156 326.402344 99.390625 C 326.5 99.617188 326.550781 99.855469 326.550781 100.105469 C 326.550781 100.355469 326.5 100.59375 326.402344 100.820312 C 326.304688 101.050781 326.164062 101.25 325.980469 101.417969 C 325.636719 101.753906 325.222656 101.917969 324.742188 101.90625 C 324.210938 101.941406 323.75 101.78125 323.355469 101.417969 Z M 70.738281 88.398438 C 70.558594 88.21875 70.421875 88.015625 70.328125 87.785156 C 70.230469 87.554688 70.183594 87.316406 70.183594 87.0625 C 70.183594 86.8125 70.230469 86.574219 70.328125 86.34375 C 70.421875 86.113281 70.558594 85.90625 70.738281 85.730469 C 70.910156 85.554688 71.109375 85.417969 71.339844 85.324219 C 71.566406 85.226562 71.804688 85.179688 72.050781 85.179688 C 72.296875 85.179688 72.535156 85.226562 72.765625 85.324219 C 72.992188 85.417969 73.191406 85.554688 73.363281 85.730469 C 73.542969 85.90625 73.679688 86.113281 73.777344 86.34375 C 73.871094 86.574219 73.921875 86.8125 73.921875 87.0625 C 73.921875 87.316406 73.871094 87.554688 73.777344 87.785156 C 73.679688 88.015625 73.542969 88.21875 73.363281 88.398438 C 72.992188 88.699219 72.566406 88.847656 72.089844 88.847656 C 71.578125 88.882812 71.125 88.730469 70.738281 88.398438 Z M 310.21875 88.398438 C 310.042969 88.21875 309.90625 88.015625 309.808594 87.785156 C 309.710938 87.554688 309.664062 87.316406 309.664062 87.0625 C 309.664062 86.8125 309.710938 86.574219 309.808594 86.34375 C 309.90625 86.113281 310.042969 85.90625 310.21875 85.730469 C 310.394531 85.558594 310.597656 85.425781 310.824219 85.335938 C 311.050781 85.242188 311.289062 85.195312 311.53125 85.195312 C 311.777344 85.195312 312.015625 85.242188 312.242188 85.335938 C 312.46875 85.425781 312.671875 85.558594 312.847656 85.730469 C 313.019531 85.910156 313.152344 86.113281 313.246094 86.34375 C 313.339844 86.574219 313.386719 86.816406 313.386719 87.0625 C 313.386719 87.3125 313.339844 87.550781 313.246094 87.78125 C 313.152344 88.011719 313.019531 88.21875 312.847656 88.398438 C 312.476562 88.816406 312.015625 89.027344 311.457031 89.035156 C 310.964844 88.960938 310.550781 88.734375 310.21875 88.359375 Z M 85.035156 76.5 C 84.894531 76.296875 84.796875 76.074219 84.738281 75.832031 C 84.683594 75.589844 84.675781 75.347656 84.710938 75.101562 C 84.75 74.859375 84.835938 74.628906 84.960938 74.414062 C 85.089844 74.203125 85.25 74.023438 85.449219 73.871094 C 85.652344 73.726562 85.871094 73.621094 86.117188 73.5625 C 86.359375 73.503906 86.601562 73.496094 86.847656 73.53125 C 87.09375 73.570312 87.324219 73.65625 87.539062 73.785156 C 87.75 73.917969 87.929688 74.082031 88.078125 74.285156 C 88.21875 74.488281 88.320312 74.710938 88.375 74.953125 C 88.429688 75.195312 88.441406 75.4375 88.402344 75.683594 C 88.363281 75.925781 88.28125 76.15625 88.152344 76.367188 C 88.023438 76.582031 87.863281 76.761719 87.664062 76.914062 C 87.335938 77.136719 86.972656 77.25 86.574219 77.25 C 85.976562 77.210938 85.5 76.949219 85.148438 76.460938 Z M 295.84375 76.800781 C 295.640625 76.65625 295.46875 76.480469 295.335938 76.265625 C 295.203125 76.054688 295.117188 75.824219 295.078125 75.574219 C 295.039062 75.328125 295.050781 75.082031 295.109375 74.835938 C 295.171875 74.59375 295.28125 74.371094 295.433594 74.171875 C 295.578125 73.976562 295.757812 73.8125 295.964844 73.6875 C 296.175781 73.558594 296.402344 73.476562 296.644531 73.4375 C 296.886719 73.398438 297.125 73.410156 297.363281 73.464844 C 297.601562 73.519531 297.820312 73.617188 298.023438 73.761719 C 298.226562 73.902344 298.394531 74.082031 298.53125 74.292969 C 298.664062 74.503906 298.753906 74.734375 298.792969 74.980469 C 298.835938 75.226562 298.828125 75.472656 298.773438 75.714844 C 298.71875 75.960938 298.617188 76.183594 298.472656 76.386719 C 298.09375 76.910156 297.578125 77.171875 296.933594 77.175781 C 296.523438 77.179688 296.164062 77.054688 295.84375 76.800781 Z M 100.6875 66.179688 C 100.5625 65.964844 100.484375 65.734375 100.453125 65.488281 C 100.421875 65.246094 100.4375 65.003906 100.5 64.765625 C 100.5625 64.523438 100.667969 64.308594 100.820312 64.109375 C 100.96875 63.914062 101.148438 63.75 101.363281 63.625 C 101.578125 63.503906 101.8125 63.425781 102.058594 63.390625 C 102.308594 63.359375 102.554688 63.375 102.796875 63.4375 C 103.035156 63.5 103.257812 63.605469 103.457031 63.757812 C 103.660156 63.90625 103.824219 64.085938 103.953125 64.300781 C 104.074219 64.519531 104.148438 64.75 104.179688 64.996094 C 104.207031 65.242188 104.191406 65.488281 104.125 65.726562 C 104.054688 65.964844 103.945312 66.183594 103.792969 66.378906 C 103.640625 66.574219 103.457031 66.730469 103.238281 66.855469 C 102.953125 67.039062 102.640625 67.128906 102.300781 67.117188 C 101.960938 67.097656 101.652344 66.992188 101.371094 66.804688 C 101.089844 66.617188 100.875 66.371094 100.722656 66.066406 Z M 280.234375 66.703125 C 280.019531 66.578125 279.839844 66.417969 279.6875 66.21875 C 279.539062 66.023438 279.433594 65.804688 279.371094 65.566406 C 279.308594 65.328125 279.292969 65.085938 279.324219 64.839844 C 279.355469 64.597656 279.433594 64.367188 279.558594 64.152344 C 279.6875 63.9375 279.851562 63.753906 280.050781 63.605469 C 280.25 63.457031 280.472656 63.347656 280.714844 63.285156 C 280.957031 63.222656 281.199219 63.207031 281.449219 63.242188 C 281.695312 63.273438 281.929688 63.351562 282.148438 63.476562 C 282.359375 63.601562 282.539062 63.761719 282.691406 63.960938 C 282.839844 64.15625 282.945312 64.375 283.007812 64.613281 C 283.070312 64.851562 283.085938 65.09375 283.054688 65.339844 C 283.023438 65.585938 282.945312 65.8125 282.820312 66.027344 C 282.652344 66.324219 282.417969 66.554688 282.125 66.722656 C 281.828125 66.890625 281.511719 66.972656 281.171875 66.964844 C 280.835938 66.929688 280.535156 66.804688 280.269531 66.589844 Z M 117.3125 57.359375 C 117.214844 57.132812 117.164062 56.894531 117.160156 56.648438 C 117.15625 56.402344 117.195312 56.164062 117.285156 55.933594 C 117.371094 55.703125 117.5 55.496094 117.667969 55.3125 C 117.832031 55.132812 118.027344 54.988281 118.25 54.882812 C 118.480469 54.78125 118.71875 54.730469 118.96875 54.722656 C 119.21875 54.71875 119.460938 54.761719 119.691406 54.855469 C 119.925781 54.945312 120.132812 55.078125 120.3125 55.253906 C 120.488281 55.425781 120.628906 55.628906 120.726562 55.859375 C 120.828125 56.085938 120.882812 56.320312 120.890625 56.570312 C 120.898438 56.816406 120.859375 57.058594 120.769531 57.289062 C 120.683594 57.523438 120.554688 57.730469 120.382812 57.910156 C 120.214844 58.089844 120.015625 58.230469 119.789062 58.335938 C 119.527344 58.390625 119.265625 58.390625 119 58.335938 C 118.648438 58.347656 118.320312 58.265625 118.015625 58.089844 C 117.710938 57.914062 117.476562 57.667969 117.3125 57.359375 Z M 263.679688 58.222656 C 263.457031 58.117188 263.265625 57.972656 263.097656 57.789062 C 262.929688 57.609375 262.800781 57.402344 262.714844 57.171875 C 262.628906 56.941406 262.585938 56.703125 262.589844 56.457031 C 262.597656 56.210938 262.648438 55.972656 262.742188 55.746094 C 262.84375 55.515625 262.980469 55.3125 263.160156 55.140625 C 263.339844 54.964844 263.546875 54.832031 263.777344 54.742188 C 264.011719 54.648438 264.253906 54.605469 264.503906 54.613281 C 264.753906 54.617188 264.992188 54.667969 265.21875 54.769531 C 265.445312 54.871094 265.644531 55.011719 265.816406 55.195312 C 265.988281 55.375 266.117188 55.578125 266.210938 55.808594 C 266.300781 56.042969 266.34375 56.28125 266.34375 56.53125 C 266.339844 56.777344 266.292969 57.015625 266.195312 57.246094 C 266.042969 57.585938 265.808594 57.859375 265.496094 58.0625 C 265.183594 58.265625 264.84375 58.367188 264.46875 58.371094 C 264.226562 58.351562 263.988281 58.300781 263.757812 58.222656 Z M 134.726562 50.527344 C 134.644531 50.292969 134.613281 50.050781 134.628906 49.800781 C 134.644531 49.550781 134.710938 49.3125 134.824219 49.089844 C 134.9375 48.867188 135.089844 48.675781 135.28125 48.515625 C 135.472656 48.355469 135.6875 48.238281 135.929688 48.164062 C 136.167969 48.09375 136.410156 48.070312 136.660156 48.09375 C 136.90625 48.117188 137.140625 48.1875 137.363281 48.304688 C 137.582031 48.417969 137.773438 48.570312 137.933594 48.761719 C 138.09375 48.953125 138.214844 49.164062 138.292969 49.402344 C 138.363281 49.640625 138.390625 49.878906 138.367188 50.125 C 138.347656 50.371094 138.28125 50.605469 138.167969 50.828125 C 138.054688 51.046875 137.90625 51.238281 137.722656 51.402344 C 137.535156 51.5625 137.324219 51.6875 137.089844 51.765625 L 136.492188 51.765625 C 136.09375 51.777344 135.730469 51.667969 135.402344 51.441406 C 135.078125 51.210938 134.851562 50.90625 134.726562 50.527344 Z M 246.492188 51.65625 C 246.253906 51.582031 246.035156 51.464844 245.84375 51.304688 C 245.652344 51.144531 245.496094 50.953125 245.378906 50.730469 C 245.261719 50.507812 245.195312 50.273438 245.171875 50.023438 C 245.152344 49.773438 245.179688 49.527344 245.253906 49.289062 C 245.324219 49.054688 245.433594 48.84375 245.589844 48.652344 C 245.742188 48.460938 245.925781 48.304688 246.140625 48.1875 C 246.351562 48.066406 246.582031 47.992188 246.824219 47.960938 C 247.066406 47.933594 247.308594 47.949219 247.542969 48.015625 C 247.78125 48.085938 248 48.203125 248.191406 48.363281 C 248.382812 48.523438 248.535156 48.71875 248.648438 48.941406 C 248.761719 49.164062 248.824219 49.398438 248.84375 49.648438 C 248.859375 49.898438 248.828125 50.140625 248.746094 50.378906 C 248.625 50.765625 248.402344 51.078125 248.078125 51.3125 C 247.75 51.550781 247.382812 51.664062 246.980469 51.65625 C 246.8125 51.65625 246.652344 51.632812 246.492188 51.578125 Z M 152.667969 45.5 C 152.609375 45.257812 152.605469 45.015625 152.648438 44.769531 C 152.691406 44.527344 152.777344 44.300781 152.914062 44.089844 C 153.046875 43.882812 153.214844 43.707031 153.421875 43.570312 C 153.625 43.429688 153.851562 43.335938 154.09375 43.285156 C 154.335938 43.230469 154.582031 43.222656 154.828125 43.265625 C 155.074219 43.308594 155.304688 43.394531 155.515625 43.527344 C 155.726562 43.664062 155.90625 43.832031 156.046875 44.039062 C 156.191406 44.242188 156.289062 44.46875 156.34375 44.710938 C 156.394531 44.957031 156.398438 45.203125 156.351562 45.449219 C 156.304688 45.699219 156.210938 45.925781 156.074219 46.136719 C 155.9375 46.347656 155.765625 46.523438 155.558594 46.667969 C 155.351562 46.808594 155.125 46.910156 154.882812 46.964844 L 154.503906 46.964844 C 154.066406 46.945312 153.683594 46.789062 153.355469 46.503906 C 153.023438 46.214844 152.820312 45.855469 152.742188 45.425781 Z M 228.554688 46.777344 C 228.308594 46.726562 228.085938 46.632812 227.882812 46.492188 C 227.675781 46.351562 227.507812 46.175781 227.375 45.96875 C 227.238281 45.761719 227.148438 45.535156 227.109375 45.289062 C 227.066406 45.046875 227.070312 44.804688 227.125 44.5625 C 227.164062 44.308594 227.246094 44.070312 227.382812 43.855469 C 227.515625 43.636719 227.6875 43.453125 227.898438 43.308594 C 228.109375 43.164062 228.339844 43.066406 228.589844 43.015625 C 228.839844 42.964844 229.089844 42.96875 229.339844 43.023438 C 229.582031 43.078125 229.804688 43.171875 230.007812 43.3125 C 230.210938 43.453125 230.382812 43.628906 230.519531 43.835938 C 230.65625 44.042969 230.75 44.265625 230.796875 44.507812 C 230.847656 44.75 230.851562 44.992188 230.804688 45.238281 C 230.761719 45.46875 230.679688 45.683594 230.558594 45.886719 C 230.433594 46.085938 230.28125 46.257812 230.09375 46.402344 C 229.90625 46.542969 229.695312 46.648438 229.46875 46.710938 C 229.242188 46.777344 229.011719 46.796875 228.777344 46.777344 L 228.402344 46.777344 Z M 171.207031 42.308594 C 171.179688 42.0625 171.203125 41.820312 171.269531 41.582031 C 171.339844 41.347656 171.453125 41.128906 171.605469 40.9375 C 171.761719 40.742188 171.949219 40.585938 172.164062 40.46875 C 172.378906 40.347656 172.613281 40.273438 172.859375 40.246094 C 173.105469 40.21875 173.351562 40.242188 173.589844 40.3125 C 173.832031 40.386719 174.046875 40.5 174.242188 40.660156 C 174.4375 40.816406 174.59375 41.007812 174.710938 41.226562 C 174.828125 41.449219 174.898438 41.683594 174.921875 41.933594 C 174.949219 42.179688 174.925781 42.421875 174.859375 42.660156 C 174.789062 42.898438 174.675781 43.113281 174.523438 43.304688 C 174.367188 43.5 174.179688 43.65625 173.964844 43.777344 C 173.746094 43.894531 173.515625 43.96875 173.269531 44 L 173.046875 44 C 172.8125 44 172.589844 43.957031 172.375 43.875 C 172.160156 43.789062 171.964844 43.671875 171.796875 43.515625 C 171.625 43.355469 171.488281 43.175781 171.386719 42.96875 C 171.285156 42.757812 171.226562 42.539062 171.207031 42.308594 Z M 210.277344 43.960938 C 210.027344 43.9375 209.792969 43.867188 209.570312 43.75 C 209.347656 43.628906 209.160156 43.476562 209 43.28125 C 208.84375 43.085938 208.726562 42.871094 208.65625 42.628906 C 208.582031 42.390625 208.5625 42.144531 208.585938 41.894531 C 208.617188 41.648438 208.6875 41.417969 208.808594 41.199219 C 208.925781 40.980469 209.082031 40.789062 209.277344 40.632812 C 209.46875 40.476562 209.683594 40.359375 209.921875 40.285156 C 210.160156 40.210938 210.402344 40.1875 210.652344 40.207031 C 210.898438 40.242188 211.128906 40.316406 211.34375 40.4375 C 211.558594 40.558594 211.746094 40.714844 211.902344 40.90625 C 212.058594 41.097656 212.175781 41.3125 212.25 41.546875 C 212.328125 41.785156 212.355469 42.023438 212.339844 42.273438 C 212.3125 42.503906 212.246094 42.722656 212.140625 42.925781 C 212.03125 43.132812 211.890625 43.3125 211.71875 43.46875 C 211.546875 43.625 211.351562 43.746094 211.136719 43.828125 C 210.917969 43.914062 210.695312 43.957031 210.464844 43.960938 Z M 189.898438 41.144531 C 189.898438 40.898438 189.945312 40.65625 190.039062 40.429688 C 190.136719 40.199219 190.269531 39.996094 190.445312 39.820312 C 190.621094 39.644531 190.824219 39.507812 191.054688 39.414062 C 191.285156 39.316406 191.523438 39.269531 191.773438 39.269531 C 192.023438 39.269531 192.261719 39.316406 192.492188 39.414062 C 192.722656 39.507812 192.925781 39.644531 193.101562 39.820312 C 193.277344 39.996094 193.410156 40.199219 193.507812 40.429688 C 193.601562 40.65625 193.648438 40.898438 193.648438 41.144531 C 193.644531 41.394531 193.59375 41.628906 193.496094 41.859375 C 193.402344 42.085938 193.265625 42.289062 193.089844 42.460938 C 192.914062 42.636719 192.714844 42.773438 192.484375 42.871094 C 192.257812 42.964844 192.019531 43.019531 191.773438 43.023438 C 191.523438 43.023438 191.285156 42.976562 191.054688 42.878906 C 190.824219 42.785156 190.621094 42.648438 190.445312 42.472656 C 190.269531 42.296875 190.136719 42.09375 190.039062 41.863281 C 189.945312 41.632812 189.898438 41.394531 189.898438 41.144531 Z M 189.898438 41.144531 " fill-opacity="1" fill-rule="nonzero"/><g clip-path="url(#7b6152ab69)"><path fill="#cda146" d="M 370.867188 221.96875 C 370.628906 222.023438 370.394531 222.023438 370.15625 221.96875 C 369.910156 221.878906 369.699219 221.742188 369.515625 221.554688 C 369.347656 221.382812 369.222656 221.179688 369.140625 220.953125 C 369.085938 220.714844 369.085938 220.480469 369.140625 220.242188 C 369.140625 219.730469 369.3125 219.292969 369.667969 218.925781 C 369.847656 218.753906 370.050781 218.621094 370.28125 218.527344 C 370.511719 218.433594 370.75 218.386719 371 218.386719 C 371.25 218.386719 371.488281 218.433594 371.71875 218.527344 C 371.949219 218.621094 372.152344 218.753906 372.332031 218.925781 C 372.527344 219.089844 372.664062 219.289062 372.746094 219.527344 C 372.796875 219.765625 372.796875 220.003906 372.746094 220.242188 C 372.738281 220.488281 372.6875 220.726562 372.59375 220.953125 C 372.496094 221.179688 372.359375 221.382812 372.183594 221.558594 C 372.007812 221.730469 371.808594 221.867188 371.582031 221.964844 C 371.351562 222.0625 371.117188 222.113281 370.867188 222.117188 Z M 370.867188 221.96875 " fill-opacity="1" fill-rule="nonzero"/></g></svg>